<svg xmlns="http://www.w3.org/2000/svg" xmlns:xlink="http://www.w3.org/1999/xlink" width="300" zoomAndPan="magnify" viewBox="0 0 224.87999 225" height="300" preserveAspectRatio="xMidYMid meet" version="1.0"><defs><g/><clipPath id="fc94a0ce18"><path d="M 0 0.0585938 L 224.761719 0.0585938 L 224.761719 224.9375 L 0 224.9375 Z M 0 0.0585938 " clip-rule="nonzero"/></clipPath><clipPath id="4f991b1c05"><path d="M 48 62.34375 L 170.328125 62.34375 L 170.328125 139 L 48 139 Z M 48 62.34375 " clip-rule="nonzero"/></clipPath><clipPath id="427686ef7c"><path d="M 45.894531 62.34375 L 144 62.34375 L 144 169 L 45.894531 169 Z M 45.894531 62.34375 " clip-rule="nonzero"/></clipPath><clipPath id="348553ad4b"><path d="M 93 62.34375 L 170.328125 62.34375 L 170.328125 184 L 93 184 Z M 93 62.34375 " clip-rule="nonzero"/></clipPath><clipPath id="31fe872523"><path d="M 62 88 L 170.328125 88 L 170.328125 186.777344 L 62 186.777344 Z M 62 88 " clip-rule="nonzero"/></clipPath><clipPath id="fd6cbae6fd"><path d="M 45.894531 62.34375 L 170.328125 62.34375 L 170.328125 186.777344 L 45.894531 186.777344 Z M 45.894531 62.34375 " clip-rule="nonzero"/></clipPath></defs><g clip-path="url(#fc94a0ce18)"><path fill="#ffffff" d="M 0 0.0585938 L 224.878906 0.0585938 L 224.878906 224.941406 L 0 224.941406 Z M 0 0.0585938 " fill-opacity="1" fill-rule="nonzero"/><path fill="#ffffff" d="M 0 0.0585938 L 224.878906 0.0585938 L 224.878906 224.941406 L 0 224.941406 Z M 0 0.0585938 " fill-opacity="1" fill-rule="nonzero"/></g><path fill="#ffa41b" d="M 121.914062 77.511719 L 115.691406 83.730469 L 103.25 81.789062 L 114.527344 70.511719 C 116.472656 68.566406 119.582031 68.566406 121.527344 70.511719 C 122.5 71.484375 123.082031 72.648438 123.082031 74.011719 C 123.46875 75.175781 122.886719 76.34375 121.914062 77.511719 Z M 121.914062 77.511719 " fill-opacity="1" fill-rule="nonzero"/><g clip-path="url(#4f991b1c05)"><path stroke-linecap="butt" transform="matrix(1.944275, 0, 0, 1.944275, 45.893876, 62.344559)" fill="none" stroke-linejoin="miter" d="M 39.099506 7.800934 L 35.899004 10.999427 L 29.500008 10.000903 L 35.300291 4.20062 C 36.300825 3.200086 37.900071 3.200086 38.900605 4.20062 C 39.400872 4.700887 39.700228 5.2996 39.700228 6.000777 C 39.89913 6.59949 39.599773 7.200212 39.099506 7.800934 Z M 39.099506 7.800934 " stroke="#ffffff" stroke-width="2" stroke-opacity="1" stroke-miterlimit="10"/></g><path fill="#ffa41b" d="M 88.667969 108.035156 L 83.808594 112.894531 C 82.445312 114.257812 80.503906 114.257812 79.140625 112.894531 C 78.558594 112.3125 78.167969 111.339844 78.167969 110.757812 C 78.167969 109.785156 78.363281 109.203125 79.140625 108.617188 L 82.058594 105.703125 C 84.195312 106.285156 86.527344 107.0625 88.667969 108.035156 Z M 88.667969 108.035156 " fill-opacity="1" fill-rule="nonzero"/><g clip-path="url(#427686ef7c)"><path stroke-linecap="butt" transform="matrix(1.944275, 0, 0, 1.944275, 45.893876, 62.344559)" fill="none" stroke-linejoin="miter" d="M 22.000024 23.500071 L 19.500699 25.999396 C 18.799521 26.700574 17.800997 26.700574 17.09982 25.999396 C 16.800463 25.70004 16.599553 25.199773 16.599553 24.900417 C 16.599553 24.40015 16.700008 24.100793 17.09982 23.799428 L 18.60062 22.300636 C 19.6996 22.599993 20.899035 22.999804 22.000024 23.500071 Z M 22.000024 23.500071 " stroke="#ffffff" stroke-width="2" stroke-opacity="1" stroke-miterlimit="10"/></g><path fill="#ffa41b" d="M 154.578125 109.980469 L 148.550781 116.199219 L 150.300781 128.644531 L 161.578125 117.367188 C 163.523438 115.421875 163.523438 112.3125 161.578125 110.367188 C 160.605469 109.394531 159.441406 108.8125 158.078125 108.8125 C 156.910156 108.617188 155.550781 109.203125 154.578125 109.980469 Z M 154.578125 109.980469 " fill-opacity="1" fill-rule="nonzero"/><g clip-path="url(#348553ad4b)"><path stroke-linecap="butt" transform="matrix(1.944275, 0, 0, 1.944275, 45.893876, 62.344559)" fill="none" stroke-linejoin="miter" d="M 55.899632 24.500605 L 52.799585 27.699098 L 53.699664 34.100103 L 59.499946 28.29982 C 60.50048 27.299286 60.50048 25.70004 59.499946 24.699506 C 58.99968 24.199239 58.400967 23.899883 57.699789 23.899883 C 57.099067 23.799428 56.399899 24.100793 55.899632 24.500605 Z M 55.899632 24.500605 " stroke="#ffffff" stroke-width="2" stroke-opacity="1" stroke-miterlimit="10"/></g><path fill="#ffa41b" d="M 123.859375 143.226562 L 119 148.085938 C 117.636719 149.449219 117.636719 151.390625 119 152.753906 C 119.582031 153.335938 120.554688 153.726562 121.136719 153.726562 C 122.109375 153.726562 122.691406 153.53125 123.277344 152.753906 L 126.191406 149.835938 C 125.609375 147.699219 124.832031 145.558594 123.859375 143.226562 Z M 123.859375 143.226562 " fill-opacity="1" fill-rule="nonzero"/><g clip-path="url(#31fe872523)"><path stroke-linecap="butt" transform="matrix(1.944275, 0, 0, 1.944275, 45.893876, 62.344559)" fill="none" stroke-linejoin="miter" d="M 40.10004 41.600087 L 37.600715 44.099413 C 36.899538 44.80059 36.899538 45.799114 37.600715 46.500292 C 37.900071 46.799648 38.400338 47.000558 38.699695 47.000558 C 39.199962 47.000558 39.499318 46.900103 39.800684 46.500292 L 41.299475 44.999491 C 41.000119 43.900511 40.600307 42.799522 40.10004 41.600087 Z M 40.10004 41.600087 " stroke="#ffffff" stroke-width="2" stroke-opacity="1" stroke-miterlimit="10"/></g><path fill="#00a7cb" d="M 166.828125 73.039062 C 166.4375 75.761719 165.273438 77.898438 163.910156 80.039062 C 161.96875 82.953125 159.441406 85.675781 156.910156 88.007812 C 153.023438 91.898438 148.550781 95.785156 144.664062 99.675781 C 144.664062 99.675781 144.46875 99.675781 144.273438 100.0625 C 143.886719 100.453125 143.496094 101.230469 143.691406 102.398438 C 143.691406 102.589844 143.691406 102.980469 143.691406 103.175781 C 143.691406 103.367188 143.691406 103.5625 143.691406 103.5625 C 146.414062 122.035156 149.136719 139.921875 151.664062 158.390625 C 152.246094 163.058594 153.023438 167.917969 153.605469 172.585938 C 153.605469 172.78125 153.605469 172.78125 153.605469 172.972656 C 153.605469 172.972656 153.605469 173.167969 153.414062 173.167969 C 150.496094 176.085938 147.578125 179.390625 144.46875 182.304688 C 144.078125 182.695312 144.078125 182.695312 143.496094 182.113281 C 135.71875 162.085938 128.136719 142.449219 120.359375 122.617188 L 119.972656 121.839844 L 119.777344 121.839844 C 109.667969 131.367188 99.167969 140.894531 89.058594 150.421875 C 88.667969 151.003906 88.667969 151.199219 88.667969 151.78125 C 89.835938 158.390625 91.195312 165.003906 92.167969 171.417969 C 92.363281 171.808594 92.167969 172.390625 91.972656 172.78125 L 86.140625 178.613281 L 85.945312 178.613281 L 53.867188 146.921875 C 53.867188 146.726562 53.867188 146.726562 53.867188 146.53125 L 58.726562 141.671875 C 59.699219 140.699219 60.085938 140.503906 61.449219 140.699219 C 67.667969 142.058594 74.085938 142.835938 80.503906 144.003906 C 80.695312 144.003906 81.085938 144.003906 81.472656 143.808594 C 90.804688 133.3125 100.527344 123.007812 110.054688 112.703125 C 110.25 112.507812 110.25 112.507812 110.25 112.3125 L 108.304688 111.535156 L 106.554688 110.757812 L 106.167969 110.5625 C 101.695312 109.007812 97.417969 107.0625 93.335938 105.507812 C 92.363281 105.3125 91.777344 104.925781 90.804688 104.535156 C 86.722656 102.980469 82.640625 101.425781 78.558594 99.867188 C 78.363281 99.867188 78.167969 99.675781 77.972656 99.675781 C 73.308594 97.925781 68.449219 96.175781 63.78125 94.035156 C 59.113281 92.285156 54.449219 90.535156 49.976562 88.785156 L 49.589844 88.59375 L 49.394531 88.398438 L 53.476562 84.316406 C 55.226562 82.566406 56.976562 80.816406 59.113281 79.066406 C 59.308594 79.066406 59.503906 78.871094 60.085938 78.871094 C 64.171875 79.257812 67.863281 80.039062 71.558594 80.425781 C 75.640625 81.007812 79.722656 81.59375 84 82.175781 C 88.085938 82.757812 92.167969 83.34375 96.445312 83.925781 C 100.527344 84.507812 104.609375 85.09375 108.886719 85.675781 C 112.972656 86.066406 116.664062 86.84375 120.359375 87.230469 C 123.859375 87.816406 127.554688 88.203125 131.054688 88.785156 C 131.054688 88.785156 131.054688 88.785156 131.246094 88.785156 C 131.832031 88.980469 132.414062 88.398438 132.804688 88.203125 C 132.996094 88.007812 132.996094 88.007812 132.996094 88.007812 C 139.21875 81.980469 145.441406 76.148438 151.664062 70.316406 C 154.578125 67.789062 157.882812 66.234375 161.578125 66.816406 C 162.160156 66.816406 162.746094 67.011719 163.132812 67.011719 C 163.328125 67.011719 163.328125 67.011719 163.523438 67.011719 C 164.105469 67.207031 164.882812 67.59375 165.464844 67.984375 C 166.632812 69.148438 167.410156 70.898438 166.828125 73.039062 Z M 166.828125 73.039062 " fill-opacity="1" fill-rule="nonzero"/><g clip-path="url(#fd6cbae6fd)"><path stroke-linecap="butt" transform="matrix(1.944275, 0, 0, 1.944275, 45.893876, 62.344559)" fill="none" stroke-linejoin="miter" d="M 62.200182 5.50051 C 61.999272 6.900855 61.400559 7.999835 60.699381 9.100824 C 59.700857 10.599616 58.400967 11.999961 57.099067 13.199396 C 55.100009 15.200463 52.799585 17.199522 50.800527 19.200589 C 50.800527 19.200589 50.700072 19.200589 50.599617 19.39949 C 50.400715 19.600401 50.199805 20.000212 50.30026 20.600934 C 50.30026 20.69938 50.30026 20.900291 50.30026 21.000746 C 50.30026 21.099192 50.30026 21.199647 50.30026 21.199647 C 51.700605 30.700699 53.100951 39.900386 54.400841 49.399428 C 54.700197 51.800307 55.100009 54.299633 55.399366 56.700512 C 55.399366 56.800967 55.399366 56.800967 55.399366 56.899413 C 55.399366 56.899413 55.399366 56.999868 55.300919 56.999868 C 53.800119 58.500669 52.299318 60.20037 50.700072 61.699162 C 50.499161 61.900072 50.499161 61.900072 50.199805 61.600716 C 46.199679 51.300041 42.300009 41.200276 38.299883 31.000056 L 38.100982 30.600244 L 38.000527 30.600244 C 32.800966 35.500448 27.400495 40.400652 22.200934 45.300857 C 22.000024 45.600213 22.000024 45.700668 22.000024 46.000025 C 22.600746 49.399428 23.299914 52.800841 23.800181 56.09979 C 23.900636 56.3007 23.800181 56.600056 23.699726 56.800967 L 20.700134 59.800559 L 20.599678 59.800559 L 4.100918 43.5007 C 4.100918 43.400244 4.100918 43.400244 4.100918 43.299789 L 6.600243 40.800464 C 7.10051 40.300197 7.299411 40.199742 8.000588 40.300197 C 11.199082 40.999365 14.500039 41.399177 17.800997 41.999899 C 17.899443 41.999899 18.100353 41.999899 18.299255 41.899444 C 23.099004 36.500982 28.099663 31.200966 32.999867 25.90095 C 33.100322 25.800495 33.100322 25.800495 33.100322 25.70004 L 32.099789 25.300228 L 31.19971 24.900417 L 31.000809 24.799961 C 28.700385 24.000338 26.500416 22.999804 24.400903 22.200181 C 23.900636 22.099726 23.59927 21.900825 23.099004 21.699914 C 20.99949 20.900291 18.899977 20.100667 16.800463 19.299035 C 16.700008 19.299035 16.599553 19.200589 16.499098 19.200589 C 14.100228 18.30051 11.600902 17.400432 9.200023 16.299443 C 6.799144 15.399365 4.400274 14.499286 2.099851 13.599208 L 1.900949 13.500761 L 1.800494 13.400306 L 3.900008 11.300793 C 4.800086 10.400714 5.700165 9.500636 6.799144 8.600557 C 6.8996 8.600557 7.000055 8.500102 7.299411 8.500102 C 9.400934 8.699003 11.299537 9.100824 13.200149 9.299725 C 15.299663 9.599082 17.399176 9.900447 19.599145 10.199804 C 21.700667 10.49916 23.800181 10.800526 26.00015 11.099882 C 28.099663 11.399239 30.199176 11.700604 32.399145 11.999961 C 34.500668 12.200871 36.399271 12.600683 38.299883 12.799584 C 40.10004 13.10095 42.000652 13.299851 43.800809 13.599208 C 43.800809 13.599208 43.800809 13.599208 43.899255 13.599208 C 44.200621 13.699663 44.499977 13.400306 44.700888 13.299851 C 44.799334 13.199396 44.799334 13.199396 44.799334 13.199396 C 47.999836 10.099349 51.200339 7.099757 54.400841 4.100165 C 55.899632 2.800275 57.599334 2.000651 59.499946 2.300008 C 59.799303 2.300008 60.100668 2.400463 60.29957 2.400463 C 60.400025 2.400463 60.400025 2.400463 60.50048 2.400463 C 60.799837 2.500918 61.199648 2.699819 61.499005 2.90073 C 62.099727 3.499443 62.499538 4.399521 62.200182 5.50051 Z M 62.200182 5.50051 " stroke="#ffffff" stroke-width="2" stroke-opacity="1" stroke-miterlimit="10"/></g><path fill="#00a7cb" d="M 162.9375 67.207031 C 162.550781 67.011719 161.96875 67.011719 161.382812 67.011719 C 161.382812 66.816406 162.160156 66.816406 162.9375 67.207031 Z M 162.9375 67.207031 " fill-opacity="1" fill-rule="nonzero"/><path fill="#00a7cb" d="M 153.414062 172.972656 C 153.414062 172.972656 153.605469 172.78125 153.605469 172.195312 C 153.605469 171.613281 153.21875 172.390625 153.21875 172.390625 Z M 153.414062 172.972656 " fill-opacity="1" fill-rule="nonzero"/><g fill="#04a8cb" fill-opacity="1"><g transform="translate(56.612871, 208.2354)"><g><path d="M 3.140625 -11.6875 L 3.140625 -1.140625 L 8.765625 -1.140625 L 8.765625 0 L 1.765625 0 L 1.765625 -11.6875 Z M 3.140625 -11.6875 "/></g></g></g><g fill="#04a8cb" fill-opacity="1"><g transform="translate(65.874822, 208.2354)"><g><path d="M 5.0625 0.171875 C 4.226562 0.171875 3.503906 -0.00390625 2.890625 -0.359375 C 2.273438 -0.710938 1.800781 -1.226562 1.46875 -1.90625 C 1.132812 -2.59375 0.96875 -3.425781 0.96875 -4.40625 C 0.96875 -5.382812 1.132812 -6.21875 1.46875 -6.90625 C 1.800781 -7.59375 2.273438 -8.109375 2.890625 -8.453125 C 3.503906 -8.804688 4.226562 -8.984375 5.0625 -8.984375 C 5.894531 -8.984375 6.617188 -8.804688 7.234375 -8.453125 C 7.847656 -8.109375 8.320312 -7.59375 8.65625 -6.90625 C 8.988281 -6.21875 9.15625 -5.382812 9.15625 -4.40625 C 9.15625 -3.425781 8.988281 -2.59375 8.65625 -1.90625 C 8.320312 -1.226562 7.847656 -0.710938 7.234375 -0.359375 C 6.617188 -0.00390625 5.894531 0.171875 5.0625 0.171875 Z M 5.0625 -1 C 5.9375 -1 6.609375 -1.273438 7.078125 -1.828125 C 7.546875 -2.378906 7.78125 -3.238281 7.78125 -4.40625 C 7.78125 -5.570312 7.546875 -6.429688 7.078125 -6.984375 C 6.609375 -7.535156 5.9375 -7.8125 5.0625 -7.8125 C 4.175781 -7.8125 3.5 -7.535156 3.03125 -6.984375 C 2.5625 -6.429688 2.328125 -5.570312 2.328125 -4.40625 C 2.328125 -3.238281 2.5625 -2.378906 3.03125 -1.828125 C 3.5 -1.273438 4.175781 -1 5.0625 -1 Z M 5.0625 -1 "/></g></g></g><g fill="#04a8cb" fill-opacity="1"><g transform="translate(75.991834, 208.2354)"><g><path d="M 3.640625 0.171875 C 2.765625 0.171875 2.082031 -0.0507812 1.59375 -0.5 C 1.113281 -0.957031 0.875 -1.609375 0.875 -2.453125 C 0.875 -2.972656 0.976562 -3.410156 1.1875 -3.765625 C 1.40625 -4.128906 1.738281 -4.425781 2.1875 -4.65625 C 2.644531 -4.882812 3.238281 -5.0625 3.96875 -5.1875 C 4.613281 -5.289062 5.101562 -5.40625 5.4375 -5.53125 C 5.769531 -5.664062 5.992188 -5.816406 6.109375 -5.984375 C 6.222656 -6.148438 6.28125 -6.359375 6.28125 -6.609375 C 6.28125 -7.015625 6.140625 -7.320312 5.859375 -7.53125 C 5.585938 -7.75 5.148438 -7.859375 4.546875 -7.859375 C 3.972656 -7.859375 3.484375 -7.742188 3.078125 -7.515625 C 2.671875 -7.296875 2.296875 -6.96875 1.953125 -6.53125 L 1.796875 -6.53125 L 1.15625 -7.4375 C 1.53125 -7.90625 2.003906 -8.28125 2.578125 -8.5625 C 3.148438 -8.84375 3.804688 -8.984375 4.546875 -8.984375 C 5.578125 -8.984375 6.335938 -8.753906 6.828125 -8.296875 C 7.328125 -7.847656 7.578125 -7.21875 7.578125 -6.40625 L 7.578125 -1.734375 C 7.578125 -1.242188 7.785156 -1 8.203125 -1 C 8.335938 -1 8.472656 -1.023438 8.609375 -1.078125 L 8.71875 -1.046875 L 8.859375 -0.140625 C 8.765625 -0.078125 8.640625 -0.03125 8.484375 0 C 8.328125 0.0390625 8.164062 0.0625 8 0.0625 C 7.519531 0.0625 7.15625 -0.0390625 6.90625 -0.25 C 6.65625 -0.46875 6.492188 -0.785156 6.421875 -1.203125 L 6.265625 -1.21875 C 6.015625 -0.75 5.675781 -0.398438 5.25 -0.171875 C 4.820312 0.0546875 4.285156 0.171875 3.640625 0.171875 Z M 3.921875 -0.875 C 4.410156 -0.875 4.832031 -0.984375 5.1875 -1.203125 C 5.550781 -1.429688 5.828125 -1.75 6.015625 -2.15625 C 6.210938 -2.570312 6.3125 -3.050781 6.3125 -3.59375 L 6.3125 -4.703125 L 6.171875 -4.734375 C 5.972656 -4.597656 5.726562 -4.484375 5.4375 -4.390625 C 5.15625 -4.296875 4.765625 -4.210938 4.265625 -4.140625 C 3.753906 -4.066406 3.347656 -3.957031 3.046875 -3.8125 C 2.742188 -3.675781 2.523438 -3.492188 2.390625 -3.265625 C 2.265625 -3.046875 2.203125 -2.773438 2.203125 -2.453125 C 2.203125 -1.929688 2.351562 -1.535156 2.65625 -1.265625 C 2.96875 -1.003906 3.390625 -0.875 3.921875 -0.875 Z M 3.921875 -0.875 "/></g></g></g><g fill="#04a8cb" fill-opacity="1"><g transform="translate(85.109941, 208.2354)"><g><path d="M 4.578125 0.171875 C 3.867188 0.171875 3.242188 0.00390625 2.703125 -0.328125 C 2.160156 -0.671875 1.734375 -1.179688 1.421875 -1.859375 C 1.117188 -2.546875 0.96875 -3.394531 0.96875 -4.40625 C 0.96875 -5.414062 1.125 -6.257812 1.4375 -6.9375 C 1.757812 -7.625 2.203125 -8.132812 2.765625 -8.46875 C 3.328125 -8.8125 3.976562 -8.984375 4.71875 -8.984375 C 5.3125 -8.984375 5.84375 -8.875 6.3125 -8.65625 C 6.78125 -8.4375 7.179688 -8.070312 7.515625 -7.5625 L 7.6875 -7.59375 L 7.6875 -12.359375 L 8.984375 -12.359375 L 8.984375 0 L 7.6875 0 L 7.6875 -1.28125 L 7.515625 -1.3125 C 7.222656 -0.875 6.832031 -0.515625 6.34375 -0.234375 C 5.851562 0.0351562 5.265625 0.171875 4.578125 0.171875 Z M 4.984375 -1 C 5.804688 -1 6.460938 -1.28125 6.953125 -1.84375 C 7.441406 -2.40625 7.6875 -3.257812 7.6875 -4.40625 C 7.6875 -5.550781 7.441406 -6.40625 6.953125 -6.96875 C 6.460938 -7.53125 5.804688 -7.8125 4.984375 -7.8125 C 4.128906 -7.8125 3.472656 -7.535156 3.015625 -6.984375 C 2.554688 -6.441406 2.328125 -5.582031 2.328125 -4.40625 C 2.328125 -2.132812 3.210938 -1 4.984375 -1 Z M 4.984375 -1 "/></g></g></g><g fill="#04a8cb" fill-opacity="1"><g transform="translate(95.63452, 208.2354)"><g><path d="M 2.1875 -10.515625 C 1.914062 -10.515625 1.691406 -10.601562 1.515625 -10.78125 C 1.335938 -10.957031 1.25 -11.175781 1.25 -11.4375 C 1.25 -11.707031 1.335938 -11.925781 1.515625 -12.09375 C 1.691406 -12.269531 1.914062 -12.359375 2.1875 -12.359375 C 2.46875 -12.359375 2.691406 -12.269531 2.859375 -12.09375 C 3.035156 -11.925781 3.125 -11.707031 3.125 -11.4375 C 3.125 -11.175781 3.035156 -10.957031 2.859375 -10.78125 C 2.691406 -10.601562 2.46875 -10.515625 2.1875 -10.515625 Z M 1.53125 0 L 1.53125 -8.8125 L 2.84375 -8.8125 L 2.84375 0 Z M 1.53125 0 "/></g></g></g><g fill="#04a8cb" fill-opacity="1"><g transform="translate(100.005783, 208.2354)"><g><path d="M 1.53125 0 L 1.53125 -8.8125 L 2.78125 -8.8125 L 2.78125 -7.4375 L 2.9375 -7.390625 C 3.226562 -7.910156 3.601562 -8.304688 4.0625 -8.578125 C 4.519531 -8.847656 5.078125 -8.984375 5.734375 -8.984375 C 6.796875 -8.984375 7.5625 -8.710938 8.03125 -8.171875 C 8.507812 -7.628906 8.75 -6.796875 8.75 -5.671875 L 8.75 0 L 7.453125 0 L 7.453125 -5.640625 C 7.453125 -6.171875 7.382812 -6.597656 7.25 -6.921875 C 7.113281 -7.242188 6.898438 -7.476562 6.609375 -7.625 C 6.328125 -7.78125 5.957031 -7.859375 5.5 -7.859375 C 4.695312 -7.859375 4.050781 -7.59375 3.5625 -7.0625 C 3.082031 -6.539062 2.84375 -5.695312 2.84375 -4.53125 L 2.84375 0 Z M 1.53125 0 "/></g></g></g><g fill="#04a8cb" fill-opacity="1"><g transform="translate(110.15476, 208.2354)"><g><path d="M 4.546875 3.734375 C 3.148438 3.734375 2.128906 3.5 1.484375 3.03125 C 0.847656 2.570312 0.53125 1.960938 0.53125 1.203125 C 0.53125 0.703125 0.679688 0.304688 0.984375 0.015625 C 1.285156 -0.273438 1.71875 -0.484375 2.28125 -0.609375 L 2.28125 -0.78125 C 2.007812 -0.9375 1.804688 -1.117188 1.671875 -1.328125 C 1.535156 -1.535156 1.46875 -1.785156 1.46875 -2.078125 C 1.46875 -2.410156 1.578125 -2.679688 1.796875 -2.890625 C 2.015625 -3.109375 2.335938 -3.273438 2.765625 -3.390625 L 2.765625 -3.5625 C 1.796875 -4.0625 1.3125 -4.882812 1.3125 -6.03125 C 1.3125 -6.601562 1.441406 -7.113281 1.703125 -7.5625 C 1.972656 -8.007812 2.347656 -8.359375 2.828125 -8.609375 C 3.316406 -8.859375 3.882812 -8.984375 4.53125 -8.984375 C 5.269531 -8.984375 5.882812 -8.820312 6.375 -8.5 C 6.5625 -8.707031 6.703125 -8.925781 6.796875 -9.15625 C 6.890625 -9.394531 6.953125 -9.664062 6.984375 -9.96875 L 7.140625 -10.078125 L 8.21875 -9.8125 C 8.164062 -9.363281 8.03125 -8.984375 7.8125 -8.671875 C 7.59375 -8.367188 7.289062 -8.117188 6.90625 -7.921875 L 6.90625 -7.75 C 7.1875 -7.519531 7.394531 -7.253906 7.53125 -6.953125 C 7.664062 -6.660156 7.734375 -6.3125 7.734375 -5.90625 C 7.734375 -5.351562 7.597656 -4.851562 7.328125 -4.40625 C 7.066406 -3.96875 6.691406 -3.617188 6.203125 -3.359375 C 5.722656 -3.109375 5.164062 -2.984375 4.53125 -2.984375 C 4.445312 -2.984375 4.3125 -2.988281 4.125 -3 C 3.914062 -3.007812 3.757812 -3.015625 3.65625 -3.015625 C 3.375 -3.015625 3.148438 -2.941406 2.984375 -2.796875 C 2.828125 -2.660156 2.75 -2.476562 2.75 -2.25 C 2.75 -1.976562 2.835938 -1.773438 3.015625 -1.640625 C 3.191406 -1.515625 3.484375 -1.441406 3.890625 -1.421875 L 5.984375 -1.34375 C 6.878906 -1.3125 7.546875 -1.101562 7.984375 -0.71875 C 8.421875 -0.332031 8.640625 0.210938 8.640625 0.921875 C 8.640625 1.453125 8.492188 1.925781 8.203125 2.34375 C 7.921875 2.769531 7.472656 3.109375 6.859375 3.359375 C 6.253906 3.609375 5.484375 3.734375 4.546875 3.734375 Z M 4.53125 -4.109375 C 5.15625 -4.109375 5.632812 -4.269531 5.96875 -4.59375 C 6.3125 -4.914062 6.484375 -5.375 6.484375 -5.96875 C 6.484375 -6.570312 6.3125 -7.039062 5.96875 -7.375 C 5.632812 -7.707031 5.15625 -7.875 4.53125 -7.875 C 3.894531 -7.875 3.410156 -7.707031 3.078125 -7.375 C 2.753906 -7.050781 2.59375 -6.582031 2.59375 -5.96875 C 2.59375 -5.375 2.753906 -4.914062 3.078125 -4.59375 C 3.410156 -4.269531 3.894531 -4.109375 4.53125 -4.109375 Z M 4.546875 2.625 C 5.191406 2.625 5.71875 2.550781 6.125 2.40625 C 6.539062 2.257812 6.835938 2.066406 7.015625 1.828125 C 7.203125 1.597656 7.296875 1.335938 7.296875 1.046875 C 7.296875 0.773438 7.242188 0.5625 7.140625 0.40625 C 7.046875 0.25 6.890625 0.128906 6.671875 0.046875 C 6.453125 -0.0351562 6.15625 -0.0859375 5.78125 -0.109375 L 3.8125 -0.203125 L 3.53125 -0.203125 C 2.425781 -0.179688 1.875 0.25 1.875 1.09375 C 1.875 2.113281 2.765625 2.625 4.546875 2.625 Z M 4.546875 2.625 "/></g></g></g><g fill="#04a8cb" fill-opacity="1"><g transform="translate(119.184953, 208.2354)"><g/></g></g><g fill="#04a8cb" fill-opacity="1"><g transform="translate(123.196596, 208.2354)"><g><path d="M 3.03125 0 L 1.765625 0 L 1.765625 -11.6875 L 3.8125 -11.6875 L 7.34375 -1.796875 L 7.515625 -1.796875 L 11.0625 -11.6875 L 13.03125 -11.6875 L 13.03125 0 L 11.71875 0 L 11.71875 -9.53125 L 11.515625 -9.578125 L 8.0625 0 L 6.703125 0 L 3.234375 -9.578125 L 3.03125 -9.53125 Z M 3.03125 0 "/></g></g></g><g fill="#04a8cb" fill-opacity="1"><g transform="translate(137.988541, 208.2354)"><g><path d="M 3.640625 0.171875 C 2.765625 0.171875 2.082031 -0.0507812 1.59375 -0.5 C 1.113281 -0.957031 0.875 -1.609375 0.875 -2.453125 C 0.875 -2.972656 0.976562 -3.410156 1.1875 -3.765625 C 1.40625 -4.128906 1.738281 -4.425781 2.1875 -4.65625 C 2.644531 -4.882812 3.238281 -5.0625 3.96875 -5.1875 C 4.613281 -5.289062 5.101562 -5.40625 5.4375 -5.53125 C 5.769531 -5.664062 5.992188 -5.816406 6.109375 -5.984375 C 6.222656 -6.148438 6.28125 -6.359375 6.28125 -6.609375 C 6.28125 -7.015625 6.140625 -7.320312 5.859375 -7.53125 C 5.585938 -7.75 5.148438 -7.859375 4.546875 -7.859375 C 3.972656 -7.859375 3.484375 -7.742188 3.078125 -7.515625 C 2.671875 -7.296875 2.296875 -6.96875 1.953125 -6.53125 L 1.796875 -6.53125 L 1.15625 -7.4375 C 1.53125 -7.90625 2.003906 -8.28125 2.578125 -8.5625 C 3.148438 -8.84375 3.804688 -8.984375 4.546875 -8.984375 C 5.578125 -8.984375 6.335938 -8.753906 6.828125 -8.296875 C 7.328125 -7.847656 7.578125 -7.21875 7.578125 -6.40625 L 7.578125 -1.734375 C 7.578125 -1.242188 7.785156 -1 8.203125 -1 C 8.335938 -1 8.472656 -1.023438 8.609375 -1.078125 L 8.71875 -1.046875 L 8.859375 -0.140625 C 8.765625 -0.078125 8.640625 -0.03125 8.484375 0 C 8.328125 0.0390625 8.164062 0.0625 8 0.0625 C 7.519531 0.0625 7.15625 -0.0390625 6.90625 -0.25 C 6.65625 -0.46875 6.492188 -0.785156 6.421875 -1.203125 L 6.265625 -1.21875 C 6.015625 -0.75 5.675781 -0.398438 5.25 -0.171875 C 4.820312 0.0546875 4.285156 0.171875 3.640625 0.171875 Z M 3.921875 -0.875 C 4.410156 -0.875 4.832031 -0.984375 5.1875 -1.203125 C 5.550781 -1.429688 5.828125 -1.75 6.015625 -2.15625 C 6.210938 -2.570312 6.3125 -3.050781 6.3125 -3.59375 L 6.3125 -4.703125 L 6.171875 -4.734375 C 5.972656 -4.597656 5.726562 -4.484375 5.4375 -4.390625 C 5.15625 -4.296875 4.765625 -4.210938 4.265625 -4.140625 C 3.753906 -4.066406 3.347656 -3.957031 3.046875 -3.8125 C 2.742188 -3.675781 2.523438 -3.492188 2.390625 -3.265625 C 2.265625 -3.046875 2.203125 -2.773438 2.203125 -2.453125 C 2.203125 -1.929688 2.351562 -1.535156 2.65625 -1.265625 C 2.96875 -1.003906 3.390625 -0.875 3.921875 -0.875 Z M 3.921875 -0.875 "/></g></g></g><g fill="#04a8cb" fill-opacity="1"><g transform="translate(147.106648, 208.2354)"><g><path d="M 1.53125 3.578125 L 1.53125 -8.8125 L 2.84375 -8.8125 L 2.84375 -7.5 L 3 -7.46875 C 3.65625 -8.476562 4.617188 -8.984375 5.890625 -8.984375 C 6.628906 -8.984375 7.269531 -8.816406 7.8125 -8.484375 C 8.363281 -8.148438 8.789062 -7.640625 9.09375 -6.953125 C 9.40625 -6.265625 9.5625 -5.414062 9.5625 -4.40625 C 9.5625 -3.394531 9.398438 -2.546875 9.078125 -1.859375 C 8.753906 -1.179688 8.3125 -0.671875 7.75 -0.328125 C 7.1875 0.00390625 6.535156 0.171875 5.796875 0.171875 C 5.203125 0.171875 4.671875 0.0664062 4.203125 -0.140625 C 3.742188 -0.347656 3.34375 -0.691406 3 -1.171875 L 2.84375 -1.140625 L 2.84375 3.578125 Z M 5.515625 -1 C 7.296875 -1 8.1875 -2.132812 8.1875 -4.40625 C 8.1875 -6.675781 7.296875 -7.8125 5.515625 -7.8125 C 4.984375 -7.8125 4.519531 -7.691406 4.125 -7.453125 C 3.726562 -7.210938 3.414062 -6.835938 3.1875 -6.328125 C 2.957031 -5.828125 2.84375 -5.1875 2.84375 -4.40625 C 2.84375 -3.632812 2.957031 -2.992188 3.1875 -2.484375 C 3.414062 -1.972656 3.726562 -1.597656 4.125 -1.359375 C 4.519531 -1.117188 4.984375 -1 5.515625 -1 Z M 5.515625 -1 "/></g></g></g><g fill="#04a8cb" fill-opacity="1"><g transform="translate(157.623226, 208.2354)"><g><path d="M 2.15625 0.078125 C 1.84375 0.078125 1.597656 -0.00390625 1.421875 -0.171875 C 1.253906 -0.347656 1.171875 -0.578125 1.171875 -0.859375 C 1.171875 -1.128906 1.253906 -1.351562 1.421875 -1.53125 C 1.597656 -1.71875 1.84375 -1.8125 2.15625 -1.8125 C 2.457031 -1.8125 2.695312 -1.722656 2.875 -1.546875 C 3.050781 -1.378906 3.140625 -1.15625 3.140625 -0.875 C 3.140625 -0.59375 3.050781 -0.363281 2.875 -0.1875 C 2.695312 -0.0078125 2.457031 0.078125 2.15625 0.078125 Z M 2.15625 0.078125 "/></g></g></g><g fill="#04a8cb" fill-opacity="1"><g transform="translate(161.930558, 208.2354)"><g><path d="M 2.15625 0.078125 C 1.84375 0.078125 1.597656 -0.00390625 1.421875 -0.171875 C 1.253906 -0.347656 1.171875 -0.578125 1.171875 -0.859375 C 1.171875 -1.128906 1.253906 -1.351562 1.421875 -1.53125 C 1.597656 -1.71875 1.84375 -1.8125 2.15625 -1.8125 C 2.457031 -1.8125 2.695312 -1.722656 2.875 -1.546875 C 3.050781 -1.378906 3.140625 -1.15625 3.140625 -0.875 C 3.140625 -0.59375 3.050781 -0.363281 2.875 -0.1875 C 2.695312 -0.0078125 2.457031 0.078125 2.15625 0.078125 Z M 2.15625 0.078125 "/></g></g></g><g fill="#04a8cb" fill-opacity="1"><g transform="translate(166.23789, 208.2354)"><g><path d="M 2.15625 0.078125 C 1.84375 0.078125 1.597656 -0.00390625 1.421875 -0.171875 C 1.253906 -0.347656 1.171875 -0.578125 1.171875 -0.859375 C 1.171875 -1.128906 1.253906 -1.351562 1.421875 -1.53125 C 1.597656 -1.71875 1.84375 -1.8125 2.15625 -1.8125 C 2.457031 -1.8125 2.695312 -1.722656 2.875 -1.546875 C 3.050781 -1.378906 3.140625 -1.15625 3.140625 -0.875 C 3.140625 -0.59375 3.050781 -0.363281 2.875 -0.1875 C 2.695312 -0.0078125 2.457031 0.078125 2.15625 0.078125 Z M 2.15625 0.078125 "/></g></g></g></svg>