<svg width="134" height="183" viewBox="0 0 134 183" fill="none" xmlns="http://www.w3.org/2000/svg">
<path d="M119.26 98.7559C124.365 89.7022 126.917 79.3001 126.917 67.5495C126.917 55.799 124.365 45.3327 119.26 36.279C114.155 27.2253 107.136 20.1622 98.139 15.0253C89.1419 9.88849 78.7409 7.32007 66.8724 7.32007C55.3229 7.32007 44.9857 9.88849 35.9248 15.0253C26.8638 20.1622 19.7809 27.2253 14.6762 36.279C9.57142 45.3327 7.01904 55.7348 7.01904 67.5495C7.01904 79.3643 9.63523 89.7664 14.8038 98.7559C19.9724 107.81 27.119 114.873 36.1162 120.01C45.1771 125.146 55.5781 127.715 67.2552 127.715C78.9962 127.715 89.2695 125.146 98.2028 120.01C107.2 114.873 114.155 107.81 119.26 98.7559ZM86.8448 79.3001C84.9305 82.7032 82.3143 85.4001 78.9962 87.3264C75.6143 89.2527 71.7219 90.2159 67.319 90.2159C62.9162 90.2159 58.96 89.2527 55.4505 87.3264C51.9409 85.4001 49.2609 82.7032 47.4105 79.3001C45.4962 75.8969 44.539 71.9801 44.539 67.4853C44.539 63.0548 45.4962 59.138 47.4105 55.6706C49.3248 52.2674 51.9409 49.5706 55.3867 47.6443C58.8324 45.718 62.6609 44.7548 66.9362 44.7548C71.339 44.7548 75.2952 45.718 78.7409 47.6443C82.1867 49.5706 84.8667 52.2674 86.7809 55.6706C88.759 59.0738 89.7162 62.9906 89.7162 67.4853C89.7162 71.9801 88.759 75.8969 86.8448 79.3001ZM89.4609 138.245C82.3143 140.364 74.7848 141.52 67 141.52C59.2152 141.52 51.6219 140.364 44.539 138.245L67 175.616L89.4609 138.245Z" fill="#005655"/>
</svg>
