<svg width="24" height="24" viewBox="0 0 24 24" fill="none" xmlns="http://www.w3.org/2000/svg">
<path d="M12 10C14.7614 10 17 7.76142 17 5C17 2.23858 14.7614 0 12 0C9.23858 0 7 2.23858 7 5C7 7.76142 9.23858 10 12 10Z" />
<path d="M12 11.5C11.6685 11.5 11.3505 11.6317 11.1161 11.8661C10.8817 12.1005 10.75 12.4185 10.75 12.75V22.75C10.75 23.0815 10.8817 23.3995 11.1161 23.6339C11.3505 23.8683 11.6685 24 12 24C12.3315 24 12.6495 23.8683 12.8839 23.6339C13.1183 23.3995 13.25 23.0815 13.25 22.75V12.75C13.25 12.4185 13.1183 12.1005 12.8839 11.8661C12.6495 11.6317 12.3315 11.5 12 11.5Z" />
</svg>
