<svg width="20" height="20" viewBox="0 0 20 20" fill="none" xmlns="http://www.w3.org/2000/svg">
<path d="M0.833344 10C0.833344 10.3315 0.96504 10.6495 1.19946 10.8839C1.43388 11.1183 1.75182 11.25 2.08334 11.25H8.54168C8.59693 11.25 8.64992 11.2719 8.68899 11.311C8.72806 11.3501 8.75001 11.4031 8.75001 11.4583V17.9167C8.75001 18.2482 8.88171 18.5661 9.11613 18.8005C9.35055 19.035 9.66849 19.1667 10 19.1667C10.3315 19.1667 10.6495 19.035 10.8839 18.8005C11.1183 18.5661 11.25 18.2482 11.25 17.9167V11.4583C11.25 11.4031 11.272 11.3501 11.311 11.311C11.3501 11.2719 11.4031 11.25 11.4583 11.25H17.9167C18.2482 11.25 18.5661 11.1183 18.8006 10.8839C19.035 10.6495 19.1667 10.3315 19.1667 10C19.1667 9.66848 19.035 9.35054 18.8006 9.11612C18.5661 8.88169 18.2482 8.75 17.9167 8.75H11.4583C11.4031 8.75 11.3501 8.72805 11.311 8.68898C11.272 8.64991 11.25 8.59692 11.25 8.54167V2.08333C11.25 1.75181 11.1183 1.43387 10.8839 1.19945C10.6495 0.965029 10.3315 0.833333 10 0.833333C9.66849 0.833333 9.35055 0.965029 9.11613 1.19945C8.88171 1.43387 8.75001 1.75181 8.75001 2.08333V8.54167C8.75001 8.59692 8.72806 8.64991 8.68899 8.68898C8.64992 8.72805 8.59693 8.75 8.54168 8.75H2.08334C1.75182 8.75 1.43388 8.88169 1.19946 9.11612C0.96504 9.35054 0.833344 9.66848 0.833344 10Z" fill="#78716C"/>
</svg>
