<svg width="20" height="24" viewBox="0 0 20 24" fill="none" xmlns="http://www.w3.org/2000/svg">
<path d="M4.47997 5.12001C4.08562 5.12526 3.7092 5.28562 3.43221 5.56636C3.15522 5.84709 2.99993 6.22562 2.99997 6.62001V16.73C2.99997 16.7963 2.97363 16.8599 2.92674 16.9068C2.87986 16.9537 2.81627 16.98 2.74997 16.98H1.47997C1.30196 16.979 1.12691 17.0255 0.972879 17.1147C0.81885 17.2039 0.691428 17.3326 0.603772 17.4876C0.516116 17.6425 0.471402 17.818 0.474249 17.996C0.477096 18.174 0.527399 18.348 0.619965 18.5L3.61997 23.5C3.70851 23.6492 3.83436 23.7728 3.98514 23.8587C4.13592 23.9446 4.30645 23.9897 4.47997 23.9897C4.65348 23.9897 4.82401 23.9446 4.97479 23.8587C5.12557 23.7728 5.25142 23.6492 5.33997 23.5L8.33997 18.5C8.42748 18.3484 8.47368 18.1765 8.47395 18.0015C8.47421 17.8265 8.42854 17.6544 8.34148 17.5026C8.25442 17.3508 8.12904 17.2244 7.97786 17.1362C7.82667 17.048 7.65499 17.0011 7.47996 17H6.22996C6.1971 16.9975 6.16505 16.9885 6.13567 16.9735C6.1063 16.9586 6.08017 16.938 6.05879 16.9129C6.03742 16.8878 6.02121 16.8587 6.01112 16.8273C6.00102 16.7959 5.99723 16.7629 5.99997 16.73V6.62001C5.99998 6.42133 5.96053 6.22463 5.8839 6.04132C5.80727 5.85802 5.69499 5.69176 5.55358 5.55221C5.41216 5.41266 5.24444 5.30259 5.06013 5.2284C4.87583 5.1542 4.67862 5.11736 4.47997 5.12001Z" fill="#808080"/>
<path d="M15.5198 18.84C15.9177 18.84 16.2992 18.6819 16.5805 18.4006C16.8618 18.1193 17.0198 17.7378 17.0198 17.34V7.22995C17.0249 7.16717 17.0534 7.10861 17.0998 7.06597C17.1461 7.02332 17.2069 6.99975 17.2698 6.99995H18.5198C18.6964 6.99992 18.8697 6.95317 19.0223 6.86446C19.1749 6.77574 19.3013 6.64822 19.3886 6.49485C19.476 6.34148 19.5212 6.16771 19.5196 5.99122C19.5181 5.81472 19.4699 5.64177 19.3798 5.48995L16.3798 0.48995C16.2913 0.340728 16.1655 0.217112 16.0147 0.131252C15.8639 0.0453926 15.6934 0.000244141 15.5198 0.000244141C15.3463 0.000244141 15.1758 0.0453926 15.025 0.131252C14.8742 0.217112 14.7484 0.340728 14.6598 0.48995L11.6598 5.48995C11.5698 5.64177 11.5216 5.81472 11.5201 5.99122C11.5185 6.16771 11.5637 6.34148 11.6511 6.49485C11.7384 6.64822 11.8648 6.77574 12.0174 6.86446C12.17 6.95317 12.3433 6.99992 12.5198 6.99995H13.7698C13.8362 6.99995 13.8997 7.02629 13.9466 7.07317C13.9935 7.12006 14.0198 7.18365 14.0198 7.24995V17.34C14.0198 17.7378 14.1779 18.1193 14.4592 18.4006C14.7405 18.6819 15.122 18.84 15.5198 18.84Z" fill="#808080"/>
</svg>
