<svg width="23" height="21" viewBox="0 0 23 21" fill="none" xmlns="http://www.w3.org/2000/svg">
<path d="M13.8958 4.51824C15.1555 4.51824 16.1767 3.5068 16.1767 2.25912C16.1767 1.01144 15.1555 0 13.8958 0C12.6362 0 11.615 1.01144 11.615 2.25912C11.615 3.5068 12.6362 4.51824 13.8958 4.51824Z" fill="#4B5563"/>
<path d="M4.3125 11.7512C3.45957 11.7512 2.62579 12.0017 1.9166 12.4711C1.20742 12.9404 0.654674 13.6076 0.328271 14.3881C0.00186843 15.1686 -0.0835333 16.0274 0.0828654 16.856C0.249264 17.6846 0.659989 18.4457 1.2631 19.043C1.86622 19.6404 2.63463 20.0472 3.47117 20.212C4.30772 20.3769 5.17482 20.2923 5.96282 19.969C6.75083 19.6457 7.42435 19.0982 7.89821 18.3958C8.37208 17.6933 8.625 16.8675 8.625 16.0227C8.62247 14.8906 8.1673 13.8056 7.3591 13.0051C6.5509 12.2046 5.45547 11.7537 4.3125 11.7512ZM4.3125 18.3957C3.83865 18.3957 3.37544 18.2565 2.98145 17.9958C2.58746 17.735 2.28038 17.3644 2.09904 16.9308C1.9177 16.4972 1.87026 16.02 1.9627 15.5597C2.05515 15.0994 2.28333 14.6766 2.61839 14.3447C2.95345 14.0128 3.38035 13.7868 3.8451 13.6952C4.30984 13.6037 4.79157 13.6507 5.22935 13.8303C5.66713 14.0099 6.04131 14.314 6.30456 14.7043C6.56782 15.0945 6.70833 15.5533 6.70833 16.0227C6.70833 16.3343 6.64636 16.6429 6.52596 16.9308C6.40556 17.2187 6.22909 17.4803 6.00661 17.7007C5.78414 17.921 5.52002 18.0958 5.22935 18.2151C4.93867 18.3343 4.62713 18.3957 4.3125 18.3957Z" fill="#4B5563"/>
<path d="M18.6875 11.7512C17.8346 11.7512 17.0008 12.0017 16.2916 12.4711C15.5824 12.9404 15.0297 13.6076 14.7033 14.3881C14.3769 15.1686 14.2915 16.0274 14.4579 16.856C14.6243 17.6846 15.035 18.4457 15.6381 19.043C16.2412 19.6404 17.0096 20.0472 17.8462 20.212C18.6827 20.3769 19.5498 20.2923 20.3378 19.969C21.1258 19.6457 21.7993 19.0982 22.2732 18.3958C22.7471 17.6933 23 16.8675 23 16.0227C22.9975 14.8906 22.5423 13.8056 21.7341 13.0051C20.9259 12.2046 19.8305 11.7537 18.6875 11.7512ZM18.6875 18.3957C18.2137 18.3957 17.7504 18.2565 17.3564 17.9958C16.9625 17.735 16.6554 17.3644 16.474 16.9308C16.2927 16.4972 16.2453 16.02 16.3377 15.5597C16.4301 15.0994 16.6583 14.6766 16.9934 14.3447C17.3285 14.0128 17.7554 13.7868 18.2201 13.6952C18.6848 13.6037 19.1666 13.6507 19.6043 13.8303C20.0421 14.0099 20.4163 14.314 20.6796 14.7043C20.9428 15.0945 21.0833 15.5533 21.0833 16.0227C21.0833 16.3343 21.0214 16.6429 20.901 16.9308C20.7806 17.2187 20.6041 17.4803 20.3816 17.7007C20.1591 17.921 19.895 18.0958 19.6043 18.2151C19.3137 18.3343 19.0021 18.3957 18.6875 18.3957Z" fill="#4B5563"/>
<path d="M10.2733 9.606L11.6629 8.03031C12.9822 8.9114 14.5376 9.38087 16.1288 9.37819H16.7708C17.1521 9.37819 17.5177 9.22818 17.7873 8.96116C18.0569 8.69414 18.2083 8.33199 18.2083 7.95437C18.2083 7.57675 18.0569 7.2146 17.7873 6.94758C17.5177 6.68056 17.1521 6.53055 16.7708 6.53055H16.1288C14.7749 6.52596 13.4771 5.99408 12.5158 5.04979C12.3863 4.91255 12.2287 4.8043 12.0535 4.73227C11.8783 4.66024 11.6896 4.6261 11.5 4.63214C11.3032 4.63832 11.1098 4.68448 10.9318 4.76775C10.7537 4.85103 10.5949 4.96964 10.465 5.11623L7.11084 8.91307C6.96752 9.06286 6.85762 9.24084 6.78828 9.43544C6.71893 9.63005 6.6917 9.83692 6.70834 10.0426C6.74387 10.2349 6.8182 10.418 6.92688 10.5811C7.03556 10.7442 7.17636 10.8839 7.34084 10.9918L7.97334 11.4095C8.8117 11.9667 9.46179 12.7605 9.83941 13.6879C10.217 14.6154 10.3048 15.6338 10.0913 16.6112C10.0338 16.7987 10.0161 16.9961 10.0392 17.1907C10.0624 17.3854 10.1258 17.5733 10.2256 17.7425C10.3254 17.9118 10.4595 18.0588 10.6193 18.1744C10.7792 18.29 10.9614 18.3716 11.1545 18.4142C11.3477 18.4568 11.5477 18.4594 11.7419 18.4219C11.9362 18.3844 12.1205 18.3076 12.2834 18.1962C12.4463 18.0849 12.5842 17.9414 12.6885 17.7749C12.7928 17.6083 12.8613 17.4222 12.8896 17.2282C13.1899 15.8421 13.1053 14.4013 12.6446 13.0591C12.1839 11.7169 11.3644 10.5235 10.2733 9.606Z" fill="#4B5563"/>
</svg>
