<svg width="20" height="20" viewBox="0 0 20 20" fill="none" xmlns="http://www.w3.org/2000/svg">
<g clip-path="url(#clip0_1697_57490)">
<path d="M12.0829 5.05834C13.1783 5.05834 14.0663 4.17037 14.0663 3.07501C14.0663 1.97964 13.1783 1.09167 12.0829 1.09167C10.9876 1.09167 10.0996 1.97964 10.0996 3.07501C10.0996 4.17037 10.9876 5.05834 12.0829 5.05834Z" fill="#4B5563"/>
<path d="M3.75 11.4083C3.00832 11.4083 2.2833 11.6283 1.66661 12.0403C1.04993 12.4524 0.569282 13.038 0.285453 13.7233C0.00162482 14.4085 -0.0726377 15.1625 0.0720569 15.8899C0.216751 16.6173 0.573904 17.2855 1.09835 17.81C1.6228 18.3344 2.29098 18.6916 3.01841 18.8363C3.74584 18.981 4.49984 18.9067 5.18506 18.6229C5.87029 18.339 6.45596 17.8584 6.86801 17.2417C7.28007 16.625 7.5 15.9 7.5 15.1583C7.4978 14.1644 7.10201 13.2119 6.39922 12.5091C5.69644 11.8063 4.74389 11.4105 3.75 11.4083ZM3.75 17.2417C3.33796 17.2417 2.93517 17.1195 2.59256 16.8906C2.24996 16.6616 1.98294 16.3363 1.82525 15.9556C1.66757 15.5749 1.62631 15.156 1.7067 14.7519C1.78708 14.3478 1.9855 13.9765 2.27686 13.6852C2.56822 13.3938 2.93944 13.1954 3.34356 13.115C3.74769 13.0346 4.16658 13.0759 4.54726 13.2336C4.92794 13.3913 5.25331 13.6583 5.48223 14.0009C5.71115 14.3435 5.83333 14.7463 5.83333 15.1583C5.83333 15.4319 5.77945 15.7028 5.67475 15.9556C5.57005 16.2083 5.4166 16.438 5.22314 16.6315C5.02969 16.8249 4.80002 16.9784 4.54726 17.0831C4.2945 17.1878 4.02359 17.2417 3.75 17.2417Z" fill="#4B5563"/>
<path d="M16.25 11.4083C15.5083 11.4083 14.7833 11.6283 14.1666 12.0403C13.5499 12.4524 13.0693 13.038 12.7855 13.7233C12.5016 14.4085 12.4274 15.1625 12.5721 15.8899C12.7168 16.6173 13.0739 17.2855 13.5984 17.81C14.1228 18.3344 14.791 18.6916 15.5184 18.8363C16.2458 18.981 16.9998 18.9067 17.6851 18.6229C18.3703 18.339 18.956 17.8584 19.368 17.2417C19.7801 16.625 20 15.9 20 15.1583C19.9978 14.1644 19.602 13.2119 18.8992 12.5091C18.1964 11.8063 17.2439 11.4105 16.25 11.4083ZM16.25 17.2417C15.838 17.2417 15.4352 17.1195 15.0926 16.8906C14.75 16.6616 14.4829 16.3363 14.3253 15.9556C14.1676 15.5749 14.1263 15.156 14.2067 14.7519C14.2871 14.3478 14.4855 13.9765 14.7769 13.6852C15.0682 13.3938 15.4394 13.1954 15.8436 13.115C16.2477 13.0346 16.6666 13.0759 17.0473 13.2336C17.4279 13.3913 17.7533 13.6583 17.9822 14.0009C18.2112 14.3435 18.3333 14.7463 18.3333 15.1583C18.3333 15.4319 18.2794 15.7028 18.1748 15.9556C18.0701 16.2083 17.9166 16.438 17.7231 16.6315C17.5297 16.8249 17.3 16.9784 17.0473 17.0831C16.7945 17.1878 16.5236 17.2417 16.25 17.2417Z" fill="#4B5563"/>
<path d="M8.93421 9.52501L10.1425 8.14168C11.2897 8.9152 12.6423 9.32736 14.0259 9.32501H14.5842C14.9157 9.32501 15.2337 9.19331 15.4681 8.95889C15.7025 8.72447 15.8342 8.40653 15.8342 8.07501C15.8342 7.74349 15.7025 7.42555 15.4681 7.19113C15.2337 6.95671 14.9157 6.82501 14.5842 6.82501H14.0259C12.8486 6.82097 11.7201 6.35403 10.8842 5.52501C10.7716 5.40452 10.6345 5.30949 10.4821 5.24625C10.3298 5.18302 10.1657 5.15305 10.0009 5.15834C9.82975 5.16377 9.66156 5.2043 9.50675 5.2774C9.35193 5.35051 9.21378 5.45464 9.10087 5.58334L6.18421 8.91668C6.05958 9.04818 5.96401 9.20443 5.90372 9.37528C5.84342 9.54613 5.81973 9.72775 5.83421 9.90834C5.8651 10.0771 5.92973 10.2379 6.02424 10.3811C6.11874 10.5243 6.24118 10.6469 6.38421 10.7417L6.93421 11.1083C7.66321 11.5976 8.22851 12.2944 8.55687 13.1086C8.88523 13.9229 8.96153 14.8169 8.77587 15.675C8.72593 15.8397 8.71053 16.0129 8.73063 16.1838C8.75074 16.3547 8.80592 16.5196 8.89272 16.6682C8.97951 16.8168 9.09606 16.9459 9.23505 17.0474C9.37404 17.1489 9.53249 17.2205 9.70047 17.2579C9.86845 17.2953 10.0423 17.2976 10.2112 17.2647C10.3802 17.2318 10.5404 17.1643 10.6821 17.0666C10.8237 16.9688 10.9436 16.8429 11.0343 16.6966C11.125 16.5504 11.1846 16.387 11.2092 16.2167C11.4704 14.9998 11.3968 13.7349 10.9961 12.5566C10.5955 11.3782 9.88295 10.3305 8.93421 9.52501Z" fill="#4B5563"/>
</g>
<defs>
<clipPath id="clip0_1697_57490">
<rect width="20" height="20" fill="white"/>
</clipPath>
</defs>
</svg>
