<svg width="24" height="24" viewBox="0 0 24 24" fill="none" xmlns="http://www.w3.org/2000/svg">
<path d="M12.75 3.75C12.75 4.34674 12.9871 4.91903 13.409 5.34099C13.831 5.76295 14.4033 6 15 6C15.5967 6 16.169 5.76295 16.591 5.34099C17.0129 4.91903 17.25 4.34674 17.25 3.75C17.25 3.15326 17.0129 2.58097 16.591 2.15901C16.169 1.73705 15.5967 1.5 15 1.5C14.4033 1.5 13.831 1.73705 13.409 2.15901C12.9871 2.58097 12.75 3.15326 12.75 3.75Z" stroke="black" stroke-width="1.5" stroke-linecap="round" stroke-linejoin="round"/>
<path d="M0.75 18.75C0.75 19.7446 1.14509 20.6984 1.84835 21.4017C2.55161 22.1049 3.50544 22.5 4.5 22.5C5.49456 22.5 6.44839 22.1049 7.15165 21.4017C7.85491 20.6984 8.25 19.7446 8.25 18.75C8.25 17.7554 7.85491 16.8016 7.15165 16.0983C6.44839 15.3951 5.49456 15 4.5 15C3.50544 15 2.55161 15.3951 1.84835 16.0983C1.14509 16.8016 0.75 17.7554 0.75 18.75Z" stroke="black" stroke-width="1.5" stroke-linecap="round" stroke-linejoin="round"/>
<path d="M15.75 18.75C15.75 19.7446 16.1451 20.6984 16.8483 21.4017C17.5516 22.1049 18.5054 22.5 19.5 22.5C20.4946 22.5 21.4484 22.1049 22.1517 21.4017C22.8549 20.6984 23.25 19.7446 23.25 18.75C23.25 17.7554 22.8549 16.8016 22.1517 16.0983C21.4484 15.3951 20.4946 15 19.5 15C18.5054 15 17.5516 15.3951 16.8483 16.0983C16.1451 16.8016 15.75 17.7554 15.75 18.75Z" stroke="black" stroke-width="1.5" stroke-linecap="round" stroke-linejoin="round"/>
<path d="M12 20.25C11.6022 20.25 11.2206 20.092 10.9393 19.8107C10.658 19.5294 10.5 19.1478 10.5 18.75C10.5021 17.6503 10.2013 16.5713 9.63043 15.6314C9.05958 14.6915 8.24081 13.9271 7.264 13.422C7.05235 13.3116 6.8701 13.1523 6.7324 12.9573C6.5947 12.7624 6.50551 12.5373 6.47226 12.301C6.43901 12.0646 6.46265 11.8237 6.54122 11.5983C6.61979 11.3729 6.75102 11.1695 6.924 11.005L10.967 7.163C11.1369 7.00147 11.3423 6.88201 11.5668 6.81421C11.7912 6.74642 12.0284 6.73217 12.2593 6.77262C12.4902 6.81307 12.7085 6.90709 12.8965 7.04713C13.0845 7.18717 13.2371 7.36933 13.342 7.579C13.349 7.592 14.487 9.75 16.5 9.75C16.8978 9.75 17.2794 9.90804 17.5607 10.1893C17.842 10.4706 18 10.8522 18 11.25C18 11.6478 17.842 12.0294 17.5607 12.3107C17.2794 12.592 16.8978 12.75 16.5 12.75C15.6016 12.7342 14.7169 12.5271 13.9049 12.1424C13.0929 11.7577 12.3722 11.2042 11.791 10.519L10.339 11.9C11.3317 12.7437 12.1288 13.7936 12.6747 14.9765C13.2205 16.1595 13.5022 17.4472 13.5 18.75C13.5 19.1478 13.342 19.5294 13.0607 19.8107C12.7794 20.092 12.3978 20.25 12 20.25Z" stroke="black" stroke-width="1.5" stroke-linecap="round" stroke-linejoin="round"/>
</svg>
