<svg width="20" height="20" viewBox="0 0 20 20" fill="none" xmlns="http://www.w3.org/2000/svg">
<path fill-rule="evenodd" clip-rule="evenodd" d="M0 1.66667C0 0.746192 0.746193 0 1.66667 0H11.6667C12.5872 0 13.3333 0.746193 13.3333 1.66667V20H8.33333V17.5C8.33333 16.5795 7.58714 15.8333 6.66667 15.8333C5.74619 15.8333 5 16.5795 5 17.5V20H0V1.66667ZM14.5833 8.33333H18.3333C19.2538 8.33333 20 9.0795 20 10V20H14.5833V8.33333ZM3.33333 2.5C2.8731 2.5 2.5 2.8731 2.5 3.33333V5.41667C2.5 5.8769 2.8731 6.25 3.33333 6.25H4.58333C5.04357 6.25 5.41667 5.8769 5.41667 5.41667V3.33333C5.41667 2.8731 5.04357 2.5 4.58333 2.5H3.33333ZM7.91667 3.33333C7.91667 2.8731 8.28977 2.5 8.75 2.5H10C10.4602 2.5 10.8333 2.8731 10.8333 3.33333V5.41667C10.8333 5.8769 10.4602 6.25 10 6.25H8.75C8.28976 6.25 7.91667 5.8769 7.91667 5.41667V3.33333ZM3.33333 9.58333C2.8731 9.58333 2.5 9.95642 2.5 10.4167V12.5C2.5 12.9602 2.8731 13.3333 3.33333 13.3333H4.58333C5.04357 13.3333 5.41667 12.9602 5.41667 12.5V10.4167C5.41667 9.95642 5.04357 9.58333 4.58333 9.58333H3.33333ZM7.91667 10.4167C7.91667 9.95642 8.28977 9.58333 8.75 9.58333H10C10.4602 9.58333 10.8333 9.95642 10.8333 10.4167V12.5C10.8333 12.9602 10.4602 13.3333 10 13.3333H8.75C8.28976 13.3333 7.91667 12.9602 7.91667 12.5V10.4167Z" fill="#707070"/>
</svg>
