<svg width="24" height="25" viewBox="0 0 24 25" fill="none" xmlns="http://www.w3.org/2000/svg">
    <path fill-rule="evenodd" clip-rule="evenodd" d="M11.8484 4.66738C13.3129 3.20291 15.6872 3.20291 17.1517 4.66737L19.909 7.42474C21.3735 8.8892 21.3735 11.2636 19.909 12.7281L18.2804 14.3568C17.9875 14.6497 17.5126 14.6497 17.2197 14.3568C16.9268 14.0639 16.9268 13.589 17.2197 13.2961L18.8484 11.6674C19.7271 10.7887 19.7271 9.36407 18.8484 8.4854L16.091 5.72803C15.2123 4.84936 13.7877 4.84936 12.909 5.72804L11.2804 7.35672C10.9875 7.64961 10.5126 7.64961 10.2197 7.35672C9.92681 7.06382 9.92681 6.58895 10.2197 6.29606L11.8484 4.66738ZM15.5304 9.04606C15.8233 9.33895 15.8233 9.81382 15.5304 10.1067L9.53036 16.1068C9.23747 16.3997 8.7626 16.3997 8.4697 16.1068C8.17681 15.8139 8.17681 15.339 8.4697 15.0461L14.4697 9.04606C14.7626 8.75316 15.2375 8.75316 15.5304 9.04606ZM6.78036 10.7961C7.07326 11.089 7.07326 11.5639 6.78036 11.8568L5.15169 13.4854C4.27301 14.3641 4.27301 15.7887 5.15169 16.6674L7.90905 19.4248C8.78773 20.3035 10.2123 20.3035 11.091 19.4248L12.7197 17.7961C13.0126 17.5032 13.4875 17.5032 13.7804 17.7961C14.0733 18.089 14.0733 18.5639 13.7804 18.8568L12.1517 20.4854C10.6872 21.9499 8.31285 21.9499 6.84839 20.4854L4.09102 17.7281C2.62656 16.2636 2.62656 13.8893 4.09103 12.4248L5.7197 10.7961C6.0126 10.5032 6.48747 10.5032 6.78036 10.7961Z" fill="#646970" style="fill:#646970;fill:color(display-p3 0.3922 0.4118 0.4392);fill-opacity:1;"/>
</svg>
