<svg width="16" height="17" viewBox="0 0 16 17" fill="none" xmlns="http://www.w3.org/2000/svg">
<g clip-path="url(#clip0_1663_3931)">
<path d="M8 0.5C6.41775 0.5 4.87104 0.969192 3.55544 1.84824C2.23985 2.72729 1.21447 3.97672 0.608967 5.43853C0.00346629 6.90034 -0.15496 8.50887 0.153721 10.0607C0.462403 11.6126 1.22433 13.038 2.34315 14.1569C3.46197 15.2757 4.88743 16.0376 6.43928 16.3463C7.99113 16.655 9.59966 16.4965 11.0615 15.891C12.5233 15.2855 13.7727 14.2602 14.6518 12.9446C15.5308 11.629 16 10.0823 16 8.5C16 6.37827 15.1571 4.34344 13.6569 2.84315C12.1566 1.34285 10.1217 0.5 8 0.5ZM11.4667 11.98C11.4074 12.0452 11.3358 12.098 11.2559 12.1353C11.1761 12.1726 11.0897 12.1937 11.0017 12.1974C10.9136 12.2012 10.8258 12.1874 10.7431 12.1569C10.6604 12.1265 10.5846 12.0799 10.52 12.02L7.18667 8.99333C7.12364 8.92813 7.07457 8.85074 7.04247 8.76591C7.01038 8.68109 6.99592 8.5906 7 8.5V4.83333C7 4.65652 7.07024 4.48695 7.19527 4.36193C7.32029 4.23691 7.48986 4.16667 7.66667 4.16667C7.84348 4.16667 8.01305 4.23691 8.13807 4.36193C8.2631 4.48695 8.33334 4.65652 8.33334 4.83333V8.20667L11.42 11.04C11.5506 11.1586 11.6288 11.3242 11.6375 11.5004C11.6463 11.6765 11.5848 11.849 11.4667 11.98Z" fill="#707070"/>
</g>
<defs>
<clipPath id="clip0_1663_3931">
<rect width="16" height="16" fill="white" transform="translate(0 0.5)"/>
</clipPath>
</defs>
</svg>
