<svg width="20" height="20" viewBox="0 0 20 20" fill="none" xmlns="http://www.w3.org/2000/svg">
<g clip-path="url(#clip0_3407_1703)">
<path d="M11.3752 20.0001H11.2169C10.9704 19.965 10.7399 19.8576 10.5545 19.6915C10.369 19.5254 10.2371 19.308 10.1752 19.0668L8.33357 11.6668L0.941907 9.82512C0.699196 9.76473 0.479985 9.63338 0.312261 9.44785C0.144536 9.26231 0.0359065 9.031 0.000240204 8.78345C-0.034478 8.53494 0.0136427 8.28191 0.137161 8.06349C0.26068 7.84508 0.452715 7.67344 0.683574 7.57512L18.3336 0.0917817C18.5568 0.00128909 18.802 -0.0208838 19.0378 0.0280732C19.2737 0.0770302 19.4898 0.194913 19.6586 0.366782C19.8232 0.535068 19.9346 0.74804 19.9791 0.979189C20.0235 1.21034 19.999 1.44946 19.9086 1.66678L12.4086 19.2834C12.3263 19.4916 12.1843 19.6707 12.0004 19.7982C11.8165 19.9258 11.599 19.996 11.3752 20.0001Z" fill="#525252"/>
</g>
<defs>
<clipPath id="clip0_3407_1703">
<rect width="20" height="20" fill="white"/>
</clipPath>
</defs>
</svg>
