<svg width="25" height="17" viewBox="0 0 25 17" fill="none" xmlns="http://www.w3.org/2000/svg">
<path d="M21.0669 6.57315C21.2364 6.95109 21.6802 7.12004 22.0582 6.95052C22.4361 6.781 22.6051 6.33719 22.4355 5.95926L21.0669 6.57315ZM20.0512 2.47621L19.3489 2.73928C19.3544 2.75409 19.3604 2.76872 19.3669 2.78315L20.0512 2.47621ZM19.2252 1.41607L18.7983 2.0327L18.7984 2.03276L19.2252 1.41607ZM17.9422 1.01621V1.76621L17.9432 1.76621L17.9422 1.01621ZM7.56022 1.01621L7.55924 1.76621H7.56022V1.01621ZM5.45122 2.47621L6.13553 2.78315C6.142 2.76874 6.14801 2.75412 6.15355 2.73932L5.45122 2.47621ZM3.06691 5.95926C2.89739 6.33719 3.06634 6.781 3.44427 6.95052C3.82221 7.12004 4.26601 6.95109 4.43553 6.57315L3.06691 5.95926ZM3.00122 12.9842C3.00122 12.57 2.66543 12.2342 2.25122 12.2342C1.83701 12.2342 1.50122 12.57 1.50122 12.9842H3.00122ZM2.69056 15.5768L3.22099 15.0466L3.22089 15.0465L2.69056 15.5768ZM4.81188 15.5768L4.28155 15.0465L4.28146 15.0466L4.81188 15.5768ZM6.00122 13.0162C6.00122 12.602 5.66543 12.2662 5.25122 12.2662C4.83701 12.2662 4.50122 12.602 4.50122 13.0162H6.00122ZM24.0012 12.9842C24.0012 12.57 23.6654 12.2342 23.2512 12.2342C22.837 12.2342 22.5012 12.57 22.5012 12.9842H24.0012ZM22.8119 15.5768L22.2816 15.0465L22.2815 15.0466L22.8119 15.5768ZM20.6905 15.5768L21.2209 15.0466L21.2209 15.0465L20.6905 15.5768ZM21.0012 13.0162C21.0012 12.602 20.6654 12.2662 20.2512 12.2662C19.837 12.2662 19.5012 12.602 19.5012 13.0162H21.0012ZM23.4154 6.85201L23.9458 6.32168L23.9457 6.32167L23.4154 6.85201ZM1.79411 12.7233L1.26383 13.2537L1.26384 13.2537L1.79411 12.7233ZM2.08701 6.85201L1.55667 6.32169L1.55666 6.32169L2.08701 6.85201ZM22.4355 5.95926L20.7355 2.16926L19.3669 2.78315L21.0669 6.57315L22.4355 5.95926ZM20.7536 2.21313C20.5391 1.64062 20.1548 1.14734 19.6521 0.799377L18.7984 2.03276C19.0497 2.20668 19.2417 2.4532 19.3489 2.73928L20.7536 2.21313ZM19.6521 0.79943C19.1495 0.451452 18.5525 0.265407 17.9412 0.266207L17.9432 1.76621C18.2487 1.76581 18.5471 1.8588 18.7983 2.0327L19.6521 0.79943ZM17.9422 0.266207H7.56022V1.76621H17.9422V0.266207ZM7.5612 0.266207C6.94988 0.265407 6.35291 0.451455 5.85028 0.799414L6.70407 2.03272C6.9553 1.8588 7.25368 1.76581 7.55924 1.76621L7.5612 0.266207ZM5.85028 0.799414C5.34765 1.14737 4.96335 1.64062 4.74889 2.21309L6.15355 2.73932C6.26075 2.45319 6.45283 2.20664 6.70407 2.03272L5.85028 0.799414ZM4.76691 2.16926L3.06691 5.95926L4.43553 6.57315L6.13553 2.78315L4.76691 2.16926ZM1.50122 12.9842V14.5162H3.00122V12.9842H1.50122ZM1.50122 14.5162C1.50122 15.1129 1.7383 15.6852 2.16023 16.1071L3.22089 15.0465C3.08022 14.9058 3.00122 14.7151 3.00122 14.5162H1.50122ZM2.16014 16.107C2.58215 16.5292 3.15453 16.7662 3.75122 16.7662V15.2662C3.55228 15.2662 3.36157 15.1872 3.22099 15.0466L2.16014 16.107ZM3.75122 16.7662C4.34792 16.7662 4.92029 16.5292 5.3423 16.107L4.28146 15.0466C4.14087 15.1872 3.95017 15.2662 3.75122 15.2662V16.7662ZM5.34221 16.1071C5.76414 15.6852 6.00122 15.1129 6.00122 14.5162H4.50122C4.50122 14.7151 4.42222 14.9058 4.28155 15.0465L5.34221 16.1071ZM6.00122 14.5162V13.0162H4.50122V14.5162H6.00122ZM22.5012 12.9842V14.5162H24.0012V12.9842H22.5012ZM22.5012 14.5162C22.5012 14.7151 22.4222 14.9058 22.2816 15.0465L23.3423 16.1071C23.7642 15.6852 24.0012 15.1129 24.0012 14.5162H22.5012ZM22.2815 15.0466C22.1409 15.1872 21.9502 15.2662 21.7512 15.2662V16.7662C22.3479 16.7662 22.9203 16.5292 23.3423 16.107L22.2815 15.0466ZM21.7512 15.2662C21.5523 15.2662 21.3615 15.1872 21.2209 15.0466L20.1601 16.107C20.5821 16.5292 21.1546 16.7662 21.7512 16.7662V15.2662ZM21.2209 15.0465C21.0802 14.9058 21.0012 14.7151 21.0012 14.5162H19.5012C19.5012 15.1129 19.7382 15.6852 20.1602 16.1071L21.2209 15.0465ZM21.0012 14.5162V13.0162H19.5012V14.5162H21.0012ZM3.50122 7.01621H22.0012V5.51621H3.50122V7.01621ZM22.0012 7.01621C22.3327 7.01621 22.6506 7.14789 22.8851 7.38234L23.9457 6.32167C23.43 5.80594 22.7305 5.51621 22.0012 5.51621V7.01621ZM22.8851 7.38234C23.1195 7.61679 23.2512 7.93472 23.2512 8.26621H24.7512C24.7512 7.53689 24.4615 6.83743 23.9458 6.32168L22.8851 7.38234ZM23.2512 8.26621V12.0162H24.7512V8.26621H23.2512ZM23.2512 12.0162C23.2512 12.0825 23.2249 12.1461 23.178 12.193L24.2387 13.2536C24.5668 12.9255 24.7512 12.4804 24.7512 12.0162H23.2512ZM23.178 12.193C23.1311 12.2398 23.0675 12.2662 23.0012 12.2662V13.7662C23.4654 13.7662 23.9105 13.5818 24.2387 13.2536L23.178 12.193ZM23.0012 12.2662H2.50122V13.7662H23.0012V12.2662ZM2.50122 12.2662C2.43499 12.2662 2.37135 12.2399 2.32438 12.1929L1.26384 13.2537C1.59195 13.5817 2.03701 13.7662 2.50122 13.7662V12.2662ZM2.32439 12.1929C2.27759 12.1461 2.25122 12.0825 2.25122 12.0162H0.751221C0.751221 12.4803 0.935567 12.9255 1.26383 13.2537L2.32439 12.1929ZM2.25122 12.0162V8.26621H0.751221V12.0162H2.25122ZM2.25122 8.26621C2.25122 7.93473 2.38291 7.61679 2.61736 7.38232L1.55666 6.32169C1.04096 6.83743 0.751221 7.53688 0.751221 8.26621H2.25122ZM2.61735 7.38232C2.85177 7.1479 3.1697 7.01621 3.50122 7.01621V5.51621C2.77188 5.51621 2.0724 5.80593 1.55667 6.32169L2.61735 7.38232ZM4.87622 9.26621C5.08334 9.26621 5.25122 9.43411 5.25122 9.64121H3.75122C3.75122 10.2625 4.25488 10.7662 4.87622 10.7662V9.26621ZM5.25122 9.64121C5.25122 9.84831 5.08334 10.0162 4.87622 10.0162V8.51621C4.25488 8.51621 3.75122 9.01991 3.75122 9.64121H5.25122ZM4.87622 10.7662C5.49756 10.7662 6.00122 10.2625 6.00122 9.64121H4.50122C4.50122 9.43411 4.6691 9.26621 4.87622 9.26621V10.7662ZM6.00122 9.64121C6.00122 9.01991 5.49756 8.51621 4.87622 8.51621V10.0162C4.6691 10.0162 4.50122 9.84831 4.50122 9.64121H6.00122ZM20.6262 9.26621C20.8333 9.26621 21.0012 9.43409 21.0012 9.64121H19.5012C19.5012 10.2625 20.0049 10.7662 20.6262 10.7662V9.26621ZM21.0012 9.64121C21.0012 9.84832 20.8333 10.0162 20.6262 10.0162V8.51621C20.0049 8.51621 19.5012 9.01989 19.5012 9.64121H21.0012ZM20.6262 10.7662C21.2475 10.7662 21.7512 10.2625 21.7512 9.64121H20.2512C20.2512 9.43409 20.4191 9.26621 20.6262 9.26621V10.7662ZM21.7512 9.64121C21.7512 9.01989 21.2475 8.51621 20.6262 8.51621V10.0162C20.4191 10.0162 20.2512 9.84832 20.2512 9.64121H21.7512Z" fill="black"/>
</svg>
