<svg width="20" height="18" viewBox="0 0 20 18" fill="none" xmlns="http://www.w3.org/2000/svg">
<path d="M18.5329 7.19049C18.5118 7.16682 18.4958 7.13909 18.4857 7.109C18.4757 7.07891 18.4719 7.04709 18.4746 7.01549C18.481 6.98424 18.4939 6.9547 18.5126 6.92884C18.5313 6.90298 18.5553 6.88139 18.5829 6.86549L19.2496 6.47383C19.4034 6.39827 19.54 6.29191 19.6509 6.16135C19.7619 6.03079 19.8448 5.87881 19.8945 5.71485C19.9443 5.5509 19.9598 5.37846 19.9401 5.20826C19.9204 5.03806 19.8659 4.87372 19.7801 4.72545C19.6942 4.57719 19.5788 4.44816 19.4409 4.34637C19.3031 4.24459 19.1458 4.17223 18.9789 4.13379C18.8119 4.09534 18.6388 4.09163 18.4703 4.12289C18.3019 4.15415 18.1416 4.21971 17.9996 4.31549L17.1079 4.82383C17.0788 4.84065 17.0457 4.8495 17.0121 4.8495C16.9784 4.8495 16.9454 4.84065 16.9163 4.82383C16.8885 4.81108 16.8638 4.79261 16.8437 4.76963C16.8236 4.74665 16.8085 4.71968 16.7996 4.69049L16.4663 2.69883C16.3686 2.10879 16.0627 1.5733 15.604 1.18953C15.1453 0.805757 14.5643 0.599136 13.9663 0.607159H5.99125C5.39796 0.609722 4.82491 0.823205 4.37454 1.20945C3.92418 1.59569 3.62587 2.12951 3.53292 2.71549L3.19959 4.69049C3.19282 4.72272 3.17879 4.75297 3.15858 4.77896C3.13836 4.80496 3.11249 4.826 3.08292 4.84049C3.05378 4.85731 3.02073 4.86617 2.98709 4.86617C2.95344 4.86617 2.92039 4.85731 2.89125 4.84049L1.99959 4.34049C1.85752 4.24471 1.69729 4.17915 1.52882 4.14789C1.36036 4.11663 1.18727 4.12034 1.0203 4.15879C0.853336 4.19723 0.696054 4.26959 0.558225 4.37137C0.420396 4.47316 0.304963 4.60219 0.219094 4.75045C0.133225 4.89872 0.078754 5.06306 0.0590634 5.23326C0.0393727 5.40346 0.0548829 5.5759 0.104631 5.73985C0.154378 5.90381 0.237302 6.05579 0.348251 6.18635C0.4592 6.31691 0.595806 6.42327 0.749587 6.49883L1.41625 6.89049C1.44391 6.90639 1.46788 6.92798 1.48655 6.95384C1.50523 6.9797 1.51819 7.00924 1.52459 7.04049C1.52727 7.07209 1.52348 7.10391 1.51345 7.134C1.50342 7.16409 1.48736 7.19182 1.46625 7.21549C0.79248 7.90316 0.415458 8.82776 0.416253 9.79049V11.4572C0.416532 11.8754 0.543199 12.2838 0.779646 12.6288C1.01609 12.9738 1.35128 13.2393 1.74125 13.3905C1.78008 13.4055 1.81353 13.4317 1.83729 13.4659C1.86106 13.5001 1.87405 13.5405 1.87459 13.5822V15.2072C1.87459 15.7044 2.07213 16.1814 2.42376 16.533C2.77539 16.8846 3.25231 17.0822 3.74959 17.0822C4.24687 17.0822 4.72378 16.8846 5.07541 16.533C5.42704 16.1814 5.62459 15.7044 5.62459 15.2072V13.7572C5.62455 13.7011 5.64622 13.6472 5.68507 13.6068C5.72392 13.5664 5.77691 13.5426 5.83292 13.5405H14.1663C14.2223 13.5426 14.2753 13.5664 14.3141 13.6068C14.3529 13.6472 14.3746 13.7011 14.3746 13.7572V15.2072C14.3746 15.7044 14.5721 16.1814 14.9238 16.533C15.2754 16.8846 15.7523 17.0822 16.2496 17.0822C16.7469 17.0822 17.2238 16.8846 17.5754 16.533C17.927 16.1814 18.1246 15.7044 18.1246 15.2072V13.5822C18.1251 13.5405 18.1381 13.5001 18.1619 13.4659C18.1856 13.4317 18.2191 13.4055 18.2579 13.3905C18.6479 13.2393 18.9831 12.9738 19.2195 12.6288C19.456 12.2838 19.5826 11.8754 19.5829 11.4572V9.79049C19.5903 8.81911 19.2128 7.88433 18.5329 7.19049ZM6.03292 2.26549H14.0496C14.2493 2.26292 14.4433 2.33219 14.5963 2.46067C14.7493 2.58915 14.851 2.7683 14.8829 2.96549L15.2829 5.35716C15.2878 5.38821 15.2858 5.41994 15.2772 5.45016C15.2686 5.48038 15.2534 5.50836 15.2329 5.53216C15.2131 5.55434 15.1887 5.57183 15.1613 5.58336C15.1339 5.59489 15.1043 5.60017 15.0746 5.59883H4.99959C4.9654 5.60054 4.93125 5.59471 4.89957 5.58175C4.86788 5.56878 4.83944 5.54901 4.81625 5.52383C4.79517 5.4674 4.79517 5.40525 4.81625 5.34883L5.17459 3.02383C5.19879 2.82341 5.29493 2.63859 5.44514 2.50372C5.59534 2.36884 5.7894 2.29307 5.99125 2.29049L6.03292 2.26549ZM16.2913 11.4322C16.044 11.4322 15.8024 11.3588 15.5968 11.2215C15.3912 11.0841 15.231 10.8889 15.1364 10.6605C15.0418 10.4321 15.017 10.1808 15.0653 9.9383C15.1135 9.69582 15.2326 9.47309 15.4074 9.29827C15.5822 9.12346 15.8049 9.00441 16.0474 8.95618C16.2899 8.90795 16.5412 8.9327 16.7696 9.02731C16.998 9.12192 17.1932 9.28213 17.3306 9.4877C17.4679 9.69326 17.5413 9.93493 17.5413 10.1822C17.5447 10.352 17.5136 10.5207 17.4497 10.6781C17.3858 10.8355 17.2905 10.9781 17.1696 11.0975C17.0488 11.2168 16.9048 11.3102 16.7467 11.3721C16.5885 11.4339 16.4193 11.4629 16.2496 11.4572L16.2913 11.4322ZM2.49959 10.2072C2.49959 9.95993 2.5729 9.71826 2.71025 9.5127C2.8476 9.30713 3.04282 9.14692 3.27123 9.05231C3.49964 8.9577 3.75097 8.93295 3.99345 8.98118C4.23593 9.02941 4.45865 9.14846 4.63347 9.32327C4.80829 9.49809 4.92734 9.72082 4.97557 9.9633C5.0238 10.2058 4.99905 10.4571 4.90444 10.6855C4.80983 10.9139 4.64961 11.1091 4.44405 11.2465C4.23849 11.3838 3.99681 11.4572 3.74959 11.4572C3.41807 11.4572 3.10012 11.3255 2.8657 11.091C2.63128 10.8566 2.49959 10.5387 2.49959 10.2072Z" fill="#4B5563"/>
</svg>
