<svg width="24" height="24" viewBox="0 0 24 24" fill="none" xmlns="http://www.w3.org/2000/svg">
<path fill-rule="evenodd" clip-rule="evenodd" d="M9.00177 3V5H13.0018V7H11.3742C11.0618 8.91166 10.4455 10.5244 9.43896 11.8188C10.1899 12.3437 11.1128 12.7471 12.2443 13.0299L13.2145 13.2725L12.7294 15.2128L11.7593 14.9702C10.2984 14.605 9.04252 14.0424 8.00171 13.245C6.96091 14.0424 5.70503 14.6049 4.24428 14.9701L3.27413 15.2127L2.78906 13.2724L3.75921 13.0299C4.89067 12.747 5.81358 12.3436 6.56448 11.8188C5.55798 10.5244 4.94173 8.91163 4.62931 7H3.00177V5H7.00177V3H9.00177ZM6.65973 7C6.92571 8.41424 7.37545 9.52718 8.00174 10.4013C8.62805 9.52718 9.0778 8.41425 9.34379 7H6.65973ZM16.1161 10H17.8874L22.3317 19.481L20.5207 20.3299L19.4286 18H14.5749L13.4828 20.3299L11.6719 19.481L16.1161 10ZM15.5124 16H18.4911L17.0018 12.8227L15.5124 16Z" fill="#666666" style="fill:#666666;fill:color(display-p3 0.4000 0.4000 0.4000);fill-opacity:1;"/>
</svg>
