<svg width="24" height="25" viewBox="0 0 24 25" fill="none" xmlns="http://www.w3.org/2000/svg">
<path fill-rule="evenodd" clip-rule="evenodd" d="M3 7.32635C3 5.25529 4.67893 3.57635 6.75 3.57635H7.25C9.32107 3.57635 11 5.25529 11 7.32635V7.82635C11 9.89742 9.32107 11.5764 7.25 11.5764H6.75C4.67893 11.5764 3 9.89742 3 7.82635V7.32635ZM6.75 5.07635C5.50736 5.07635 4.5 6.08371 4.5 7.32635V7.82635C4.5 9.06899 5.50736 10.0764 6.75 10.0764H7.25C8.49264 10.0764 9.5 9.06899 9.5 7.82635V7.32635C9.5 6.08371 8.49264 5.07635 7.25 5.07635H6.75ZM13 7.32635C13 5.25529 14.6789 3.57635 16.75 3.57635H17.25C19.3211 3.57635 21 5.25529 21 7.32635V7.82635C21 9.89742 19.3211 11.5764 17.25 11.5764H16.75C14.6789 11.5764 13 9.89742 13 7.82635V7.32635ZM16.75 5.07635C15.5074 5.07635 14.5 6.08371 14.5 7.32635V7.82635C14.5 9.06899 15.5074 10.0764 16.75 10.0764H17.25C18.4926 10.0764 19.5 9.06899 19.5 7.82635V7.32635C19.5 6.08371 18.4926 5.07635 17.25 5.07635H16.75ZM3 17.3264C3 15.2553 4.67893 13.5764 6.75 13.5764H7.25C9.32107 13.5764 11 15.2553 11 17.3264V17.8264C11 19.8975 9.32107 21.5764 7.25 21.5764H6.75C4.67893 21.5764 3 19.8975 3 17.8264V17.3264ZM6.75 15.0764C5.50736 15.0764 4.5 16.0838 4.5 17.3264V17.8264C4.5 19.069 5.50736 20.0764 6.75 20.0764H7.25C8.49264 20.0764 9.5 19.069 9.5 17.8264V17.3264C9.5 16.0838 8.49264 15.0764 7.25 15.0764H6.75Z" fill="#646970" style="fill:#646970;fill:color(display-p3 0.3922 0.4118 0.4392);fill-opacity:1;"/>
<path fill-rule="evenodd" clip-rule="evenodd" d="M13.75 13.5764C14.1642 13.5764 14.5 13.9122 14.5 14.3264V16.0764H16.25C16.6642 16.0764 17 16.4122 17 16.8264C17 17.2406 16.6642 17.5764 16.25 17.5764H13.75C13.3358 17.5764 13 17.2406 13 16.8264V14.3264C13 13.9122 13.3358 13.5764 13.75 13.5764ZM17 14.3264C17 13.9122 17.3358 13.5764 17.75 13.5764H20.25C20.6642 13.5764 21 13.9122 21 14.3264C21 14.7406 20.6642 15.0764 20.25 15.0764H17.75C17.3358 15.0764 17 14.7406 17 14.3264ZM17 18.3264C17 17.9122 17.3358 17.5764 17.75 17.5764H20.25C20.6642 17.5764 21 17.9122 21 18.3264C21 18.7406 20.6642 19.0764 20.25 19.0764H18.5V20.8264C18.5 21.2406 18.1642 21.5764 17.75 21.5764C17.3358 21.5764 17 21.2406 17 20.8264V18.3264Z" fill="#646970" style="fill:#646970;fill:color(display-p3 0.3922 0.4118 0.4392);fill-opacity:1;"/>
<path d="M13 20.5764C13 20.0241 13.4477 19.5764 14 19.5764C14.5523 19.5764 15 20.0241 15 20.5764C15 21.1287 14.5523 21.5764 14 21.5764C13.4477 21.5764 13 21.1287 13 20.5764Z" fill="#646970" style="fill:#646970;fill:color(display-p3 0.3922 0.4118 0.4392);fill-opacity:1;"/>
<path d="M5.5 17.0764C5.5 16.5241 5.94772 16.0764 6.5 16.0764H7.5C8.05228 16.0764 8.5 16.5241 8.5 17.0764V18.0764C8.5 18.6287 8.05228 19.0764 7.5 19.0764H6.5C5.94772 19.0764 5.5 18.6287 5.5 18.0764V17.0764Z" fill="#646970" style="fill:#646970;fill:color(display-p3 0.3922 0.4118 0.4392);fill-opacity:1;"/>
<path d="M5.5 7.07635C5.5 6.52407 5.94772 6.07635 6.5 6.07635H7.5C8.05228 6.07635 8.5 6.52407 8.5 7.07635V8.07635C8.5 8.62863 8.05228 9.07635 7.5 9.07635H6.5C5.94772 9.07635 5.5 8.62863 5.5 8.07635V7.07635Z" fill="#646970" style="fill:#646970;fill:color(display-p3 0.3922 0.4118 0.4392);fill-opacity:1;"/>
<path d="M15.5 7.07635C15.5 6.52407 15.9477 6.07635 16.5 6.07635H17.5C18.0523 6.07635 18.5 6.52407 18.5 7.07635V8.07635C18.5 8.62863 18.0523 9.07635 17.5 9.07635H16.5C15.9477 9.07635 15.5 8.62863 15.5 8.07635V7.07635Z" fill="#646970" style="fill:#646970;fill:color(display-p3 0.3922 0.4118 0.4392);fill-opacity:1;"/>
</svg>
