<svg width="20" height="24" viewBox="0 0 20 24" fill="none" xmlns="http://www.w3.org/2000/svg">
<path d="M4.48045 5.12001C4.0861 5.12526 3.70969 5.28562 3.4327 5.56636C3.15571 5.84709 3.00042 6.22562 3.00045 6.62001V16.73C3.00045 16.7963 2.97411 16.8599 2.92723 16.9068C2.88035 16.9537 2.81676 16.98 2.75045 16.98H1.48045C1.30245 16.979 1.1274 17.0255 0.973367 17.1147C0.819338 17.2039 0.691916 17.3326 0.60426 17.4876C0.516604 17.6425 0.471891 17.818 0.474737 17.996C0.477584 18.174 0.527887 18.348 0.620453 18.5L3.62045 23.5C3.709 23.6492 3.83484 23.7728 3.98563 23.8587C4.13641 23.9446 4.30694 23.9897 4.48045 23.9897C4.65397 23.9897 4.8245 23.9446 4.97528 23.8587C5.12606 23.7728 5.25191 23.6492 5.34045 23.5L8.34045 18.5C8.42797 18.3484 8.47417 18.1765 8.47444 18.0015C8.4747 17.8265 8.42903 17.6544 8.34197 17.5026C8.25491 17.3508 8.12953 17.2244 7.97834 17.1362C7.82716 17.048 7.65548 17.0011 7.48045 17H6.23045C6.19758 16.9975 6.16554 16.9885 6.13616 16.9735C6.10679 16.9586 6.08066 16.938 6.05928 16.9129C6.03791 16.8878 6.0217 16.8587 6.01161 16.8273C6.00151 16.7959 5.99772 16.7629 6.00045 16.73V6.62001C6.00047 6.42133 5.96102 6.22463 5.88439 6.04132C5.80776 5.85802 5.69548 5.69176 5.55407 5.55221C5.41265 5.41266 5.24493 5.30259 5.06062 5.2284C4.87632 5.1542 4.67911 5.11736 4.48045 5.12001Z" fill="#707070"/>
<path d="M15.5203 18.84C15.9182 18.84 16.2997 18.6819 16.581 18.4006C16.8623 18.1193 17.0203 17.7378 17.0203 17.34V7.22995C17.0254 7.16717 17.0539 7.10861 17.1003 7.06597C17.1466 7.02332 17.2074 6.99975 17.2703 6.99995H18.5203C18.6968 6.99992 18.8702 6.95317 19.0228 6.86446C19.1754 6.77574 19.3018 6.64822 19.3891 6.49485C19.4765 6.34148 19.5217 6.16771 19.5201 5.99122C19.5186 5.81472 19.4704 5.64177 19.3803 5.48995L16.3803 0.48995C16.2918 0.340728 16.1659 0.217112 16.0152 0.131252C15.8644 0.0453926 15.6938 0.000244141 15.5203 0.000244141C15.3468 0.000244141 15.1763 0.0453926 15.0255 0.131252C14.8747 0.217112 14.7489 0.340728 14.6603 0.48995L11.6603 5.48995C11.5703 5.64177 11.5221 5.81472 11.5205 5.99122C11.519 6.16771 11.5642 6.34148 11.6516 6.49485C11.7389 6.64822 11.8653 6.77574 12.0179 6.86446C12.1705 6.95317 12.3438 6.99992 12.5203 6.99995H13.7703C13.8366 6.99995 13.9002 7.02629 13.9471 7.07317C13.994 7.12006 14.0203 7.18365 14.0203 7.24995V17.34C14.0203 17.7378 14.1784 18.1193 14.4597 18.4006C14.741 18.6819 15.1225 18.84 15.5203 18.84Z" fill="#707070"/>
</svg>
