<svg width="13" height="20" viewBox="0 0 13 20" fill="none" xmlns="http://www.w3.org/2000/svg">
<path d="M9.61194 2.82846C9.61194 3.93033 8.7187 4.82357 7.61683 4.82357C6.51495 4.82357 5.62171 3.93033 5.62171 2.82846C5.62171 1.72659 6.51495 0.833344 7.61683 0.833344C8.7187 0.833344 9.61194 1.72659 9.61194 2.82846Z" fill="#4B5563"/>
<path d="M3.85618 7.89573L2.70342 8.26942C2.51461 8.33063 2.38005 8.49797 2.36081 8.69552L2.15675 10.7898C2.10483 11.3227 1.64157 11.7195 1.10705 11.6891C0.529883 11.6562 0.101401 11.1412 0.174055 10.5677L0.562276 7.5031C0.609594 7.12957 0.863193 6.8145 1.21798 6.68846L5.43314 5.19101C5.91287 4.94642 6.49458 4.90944 7.02868 5.14168C7.58278 5.38261 7.96247 5.86074 8.09808 6.40693C8.10564 6.42543 8.11266 6.44417 8.11911 6.46314L8.13434 6.50792C8.1531 6.56308 8.17666 6.6165 8.20475 6.66755L9.12944 8.34823C9.24374 8.55597 9.4283 8.71621 9.65003 8.80021L11.6264 9.54897C12.2431 9.78262 12.4674 10.5397 12.0776 11.0716C11.8078 11.4397 11.3226 11.5778 10.8994 11.4069L8.27831 10.3486C8.07383 10.266 7.90247 10.118 7.79102 9.92774L7.36282 9.1966L6.28886 11.8906C6.2887 11.8929 6.2885 11.8952 6.28824 11.8974C6.28503 11.9259 6.28989 11.9548 6.30227 11.9807L6.30571 11.9879L9.7205 18.1483C10.0544 18.7506 9.83675 19.5096 9.23443 19.8434C8.6321 20.1773 7.87316 19.9597 7.53929 19.3574L4.94329 14.6741L2.97868 19.1924C2.70407 19.8239 1.96948 20.1133 1.33793 19.8387C0.706382 19.5641 0.417021 18.8295 0.691627 18.1979L3.26686 12.2753L3.30923 12.1729C3.31648 12.1479 3.31685 12.1215 3.3104 12.0965C2.88761 11.4405 2.77915 10.5975 3.08907 9.82005L3.85618 7.89573Z" fill="#4B5563"/>
</svg>
