<svg width="16" height="23" viewBox="0 0 16 23" fill="none" xmlns="http://www.w3.org/2000/svg">
<path d="M14.8283 12.5114C13.0715 12.7419 11.6825 11.6512 10.8029 10.5371M4.54048 18.9458C4.54048 18.9458 4.40248 21.2918 2.30927 22.1659M1.28847 11.8167C1.7938 9.81531 4.23927 8.05867 8.14057 8.11944M10.497 13.711L10.8032 11.251C10.9931 9.72552 9.91042 8.33492 8.38493 8.14501C6.85943 7.95512 5.46882 9.03785 5.27893 10.5633L4.82158 14.2374C4.71323 15.1077 5.27917 15.9194 6.13323 16.1187L8.95165 16.7762C9.44284 16.895 9.84838 17.2401 10.0442 17.706L11.7251 21.7053M10.2814 7.04175C11.6975 6.44345 12.3604 4.81049 11.7621 3.39444C11.1638 1.97837 9.53086 1.31542 8.11479 1.91372C6.69874 2.51201 6.03579 4.14497 6.63407 5.56104C7.23238 6.97709 8.86533 7.64004 10.2814 7.04175Z" stroke="#171717" stroke-width="1.5" stroke-linecap="round" stroke-linejoin="round"/>
</svg>
