<svg width="20" height="21" viewBox="0 0 20 21" fill="none" xmlns="http://www.w3.org/2000/svg">
<path d="M9.47493 5.31657C10.6255 5.31657 11.5583 4.38383 11.5583 3.23324C11.5583 2.08264 10.6255 1.1499 9.47493 1.1499C8.32434 1.1499 7.3916 2.08264 7.3916 3.23324C7.3916 4.38383 8.32434 5.31657 9.47493 5.31657Z" fill="#707070"/>
<path d="M11.2998 9.81651C11.9155 10.2775 12.6023 10.6349 13.3331 10.8748L14.3081 11.1998C14.4373 11.2422 14.5722 11.2647 14.7081 11.2665C15.0073 11.2658 15.2963 11.1577 15.5227 10.962C15.749 10.7662 15.8976 10.4958 15.9414 10.1998C15.9717 9.89742 15.8937 9.59407 15.7213 9.3438C15.5488 9.09353 15.2932 8.91258 14.9998 8.83317L14.0998 8.49984C13.6321 8.34451 13.1929 8.11368 12.7998 7.81651L11.9664 7.18318C11.1488 6.56387 10.1505 6.23012 9.12478 6.23318C8.38741 6.23412 7.6602 6.40522 6.99978 6.73317C6.13221 7.16265 5.40003 7.82329 4.88393 8.64229C4.36782 9.46129 4.08782 10.4069 4.07478 11.3748C4.06067 11.6649 4.1441 11.9513 4.31175 12.1885C4.4794 12.4256 4.72161 12.5997 4.99978 12.6832C5.10221 12.695 5.20567 12.695 5.30811 12.6832C5.6284 12.6836 5.93664 12.5611 6.16923 12.3409C6.40183 12.1207 6.54103 11.8197 6.55811 11.4998C6.54396 11.0013 6.66126 10.5078 6.89823 10.069C7.1352 9.63018 7.48349 9.26144 7.90811 8.99984C7.94047 8.98297 7.97658 8.97454 8.01307 8.97534C8.04956 8.97615 8.08526 8.98616 8.11685 9.00445C8.14843 9.02274 8.17489 9.04871 8.19376 9.07995C8.21263 9.1112 8.2233 9.1467 8.22478 9.18318V10.3082C8.22269 11.4907 8.09418 12.6696 7.84144 13.8248C7.50278 15.2445 6.87279 16.5782 5.99144 17.7415C5.88912 17.8701 5.81313 18.0176 5.7678 18.1755C5.72248 18.3335 5.70871 18.4988 5.72728 18.6621C5.76479 18.9918 5.93175 19.2932 6.19144 19.4998C6.45113 19.7065 6.78228 19.8015 7.11203 19.764C7.44178 19.7265 7.74313 19.5595 7.94978 19.2998C8.90866 17.9577 9.63023 16.461 10.0831 14.8748C10.0944 14.8392 10.115 14.8072 10.1429 14.7823C10.1707 14.7574 10.2048 14.7404 10.2414 14.7332C10.2784 14.7281 10.316 14.7323 10.3509 14.7454C10.3858 14.7585 10.4169 14.7801 10.4414 14.8082C11.3567 16.0777 12.0525 17.4918 12.4998 18.9915C12.5545 19.1469 12.6393 19.29 12.7493 19.4126C12.8593 19.5353 12.9924 19.635 13.141 19.7062C13.2896 19.7774 13.4507 19.8186 13.6152 19.8276C13.7797 19.8365 13.9444 19.8129 14.0998 19.7582C14.2552 19.7035 14.3983 19.6187 14.5209 19.5086C14.6435 19.3986 14.7433 19.2655 14.8145 19.117C14.8857 18.9684 14.9269 18.8072 14.9358 18.6427C14.9447 18.4782 14.9212 18.3136 14.8664 18.1582C14.1626 15.7741 12.8501 13.6144 11.0581 11.8915C10.9677 11.8142 10.8949 11.7184 10.8446 11.6106C10.7943 11.5028 10.7676 11.3855 10.7664 11.2665V9.79984C10.7662 9.76129 10.777 9.72347 10.7977 9.69095C10.8184 9.65842 10.8481 9.63257 10.8831 9.61651C10.9158 9.59664 10.9532 9.58613 10.9914 9.58613C11.0297 9.58613 11.0671 9.59664 11.0998 9.61651L11.2998 9.81651Z" fill="#707070"/>
</svg>
